<?xml version="1.0" encoding="UTF-8" standalone="no"?>
<!-- created by matrix_reduction.pl -->

<svg
   xmlns:svg="http://www.w3.org/2000/svg"
   xmlns="http://www.w3.org/2000/svg"
   version="1.0"
   width="153"
   height="15.3"
   id="svg2">

  <defs
     id="defs4" />

<line
     x1="0"
     y1="7.65"
     x2="153"
     y2="7.65"
     style="stroke: black;stroke-width:1.5;"
     id="line001" />

<line
     x1="0"
     y1="0"
     x2="0"
     y2="15.3"
     style="stroke: black;stroke-width:1.5;"
     id="line002" />

<line
     x1="0"
     y1="7.65"
     x2="-5"
     y2="7.65"
     style="stroke: black;stroke-width:1.5;"
     id="line003" />
     
<line
x1="0" y1="9.18" x2="-5" y2="9.18" style="stroke: black;stroke-width:1.5;" id="line004"/>
<line
x1="0" y1="6.12" x2="-5" y2="6.12" style="stroke: black;stroke-width:1.5;" id="line004"/>
<text
x="-15" y="6.12" text-anchor="end"
style="font-size:12px;font-family:Bitstream Vera Sans"
>0.2</text>
<text
x="-15" y="9.18" text-anchor="end"
style="font-size:12px;font-family:Bitstream Vera Sans"
>-0.2</text>
<line
x1="0" y1="10.71" x2="-5" y2="10.71" style="stroke: black;stroke-width:1.5;" id="line004"/>
<line
x1="0" y1="4.59" x2="-5" y2="4.59" style="stroke: black;stroke-width:1.5;" id="line004"/>
<text
x="-15" y="4.59" text-anchor="end"
style="font-size:12px;font-family:Bitstream Vera Sans"
>0.4</text>
<text
x="-15" y="10.71" text-anchor="end"
style="font-size:12px;font-family:Bitstream Vera Sans"
>-0.4</text>
<line
x1="0" y1="12.24" x2="-5" y2="12.24" style="stroke: black;stroke-width:1.5;" id="line004"/>
<line
x1="0" y1="3.06" x2="-5" y2="3.06" style="stroke: black;stroke-width:1.5;" id="line004"/>
<text
x="-15" y="3.06" text-anchor="end"
style="font-size:12px;font-family:Bitstream Vera Sans"
>0.6</text>
<text
x="-15" y="12.24" text-anchor="end"
style="font-size:12px;font-family:Bitstream Vera Sans"
>-0.6</text>
<line
x1="0" y1="13.77" x2="-5" y2="13.77" style="stroke: black;stroke-width:1.5;" id="line004"/>
<line
x1="0" y1="1.53" x2="-5" y2="1.53" style="stroke: black;stroke-width:1.5;" id="line004"/>
<text
x="-15" y="1.53" text-anchor="end"
style="font-size:12px;font-family:Bitstream Vera Sans"
>0.8</text>
<text
x="-15" y="13.77" text-anchor="end"
style="font-size:12px;font-family:Bitstream Vera Sans"
>-0.8</text>
<line
x1="0" y1="15.3" x2="-5" y2="15.3" style="stroke: black;stroke-width:1.5;" id="line004"/>
<line
x1="0" y1="0" x2="-5" y2="0" style="stroke: black;stroke-width:1.5;" id="line004"/>
<text
x="-15" y="0" text-anchor="end"
style="font-size:12px;font-family:Bitstream Vera Sans"
>1</text>
<text
x="-15" y="15.3" text-anchor="end"
style="font-size:12px;font-family:Bitstream Vera Sans"
>-1</text>
<line
x1="0" y1="7.65" x2="0" y2="12.65" style="stroke: black;stroke-width:1.5;" id="line005"/>
<line
x1="10" y1="7.65" x2="10" y2="12.65" style="stroke: black;stroke-width:0.5;" id="line005"/>
<line
x1="20" y1="7.65" x2="20" y2="12.65" style="stroke: black;stroke-width:0.5;" id="line005"/>
<line
x1="30" y1="7.65" x2="30" y2="12.65" style="stroke: black;stroke-width:0.5;" id="line005"/>
<line
x1="40" y1="7.65" x2="40" y2="12.65" style="stroke: black;stroke-width:0.5;" id="line005"/>
<line
x1="50" y1="7.65" x2="50" y2="12.65" style="stroke: black;stroke-width:0.5;" id="line005"/>
<line
x1="60" y1="7.65" x2="60" y2="12.65" style="stroke: black;stroke-width:0.5;" id="line005"/>
<line
x1="70" y1="7.65" x2="70" y2="12.65" style="stroke: black;stroke-width:0.5;" id="line005"/>
<line
x1="80" y1="7.65" x2="80" y2="12.65" style="stroke: black;stroke-width:0.5;" id="line005"/>
<line
x1="90" y1="7.65" x2="90" y2="12.65" style="stroke: black;stroke-width:0.5;" id="line005"/>
<line
x1="100" y1="7.65" x2="100" y2="12.65" style="stroke: black;stroke-width:1.5;" id="line005"/>
<line
x1="110" y1="7.65" x2="110" y2="12.65" style="stroke: black;stroke-width:0.5;" id="line005"/>
<line
x1="120" y1="7.65" x2="120" y2="12.65" style="stroke: black;stroke-width:0.5;" id="line005"/>
<line
x1="130" y1="7.65" x2="130" y2="12.65" style="stroke: black;stroke-width:0.5;" id="line005"/>
<line
x1="140" y1="7.65" x2="140" y2="12.65" style="stroke: black;stroke-width:0.5;" id="line005"/>
<line
x1="150" y1="7.65" x2="150" y2="12.65" style="stroke: black;stroke-width:0.5;" id="line005"/>

<polyline
	points="1 6.375,2 5.1,3 3.825,4 2.55,5 1.275,6 0,7 0,8 0,9 0,10 0,11 0,12 0,13 0,14 0,15 0,16 0,17 0,18 0,19 0,20 0,21 0,22 0,23 0,24 0,25 0,26 0,27 0,28 0,29 0,30 0,31 0,32 0,33 0,34 0,35 0,36 0,37 0,38 0,39 0,40 0,41 0,42 0,43 0,44 0,45 0,46 0,47 0,48 0,49 0,50 0,51 0,52 0,53 0,54 0,55 0,56 0,57 0,58 0,59 0,60 0,61 0,62 0,63 0,64 0,65 0,66 0,67 0,68 0,69 0,70 0,71 0,72 0,73 0,74 0,75 0,76 0,77 0,78 0,79 0,80 0,81 0,82 0,83 0,84 0,85 0,86 0,87 0,88 0,89 0,90 0,91 0,92 0,93 0,94 0,95 0,96 0,97 0,98 0,99 0,100 0,101 0,102 0,103 2.55,104 5.1,105 7.65,106 10.2,107 12.75,108 15.3,109 15.3,110 15.3,111 15.3,112 15.3,113 15.3,114 15.3,115 15.3,116 15.3,117 12.75,118 12.75,119 12.75,120 12.75,121 12.75,122 12.75,123 15.3,124 15.3,125 15.3,126 15.3,127 15.3,128 15.3,129 15.3,130 12.75,131 12.75,132 12.75,133 12.75,134 12.75,135 12.75,136 15.3,137 15.3,138 15.3,139 15.3,140 15.3,141 15.3,142 15.3,143 15.3,144 15.3,145 15.3,146 15.3,147 15.3,148 14.025,149 12.75,150 11.475,151 10.2,152 8.925,153 7.65"
	style="stroke:grey;stroke-width:0.25;fill:none"/>


<polyline
	points="1 6.375,2 5.1,3 3.825,4 2.55,5 1.275,6 0,7 0,8 0,9 0,10 0,11 0,12 0,13 0,14 0,15 0,16 0,17 0,18 0,19 0,20 0,21 0,22 0,23 0,24 0,25 0,26 0,27 0,28 0,29 0,30 0,31 0,32 0,33 0,34 0,35 0,36 0,37 0,38 0,39 0,40 0,41 0,42 0,43 0,44 0,45 0,46 0,47 0,48 0,49 0,50 0,51 0,52 0,53 0,54 0,55 0,56 0,57 0,58 0,59 0,60 0,61 0,62 0,63 2.55,64 5.1,65 5.1,66 5.1,67 5.1,68 5.1,69 2.55,70 0,71 0,72 0,73 0,74 0,75 0,76 0,77 0,78 0,79 0,80 0,81 0,82 0,83 0,84 0,85 0,86 0,87 0,88 0,89 0,90 0,91 0,92 0,93 0,94 0,95 0,96 0,97 0,98 0,99 0,100 0,101 0,102 0,103 0,104 2.55,105 5.1,106 7.65,107 10.2,108 12.75,109 15.3,110 15.3,111 15.3,112 15.3,113 15.3,114 15.3,115 15.3,116 15.3,117 15.3,118 15.3,119 15.3,120 15.3,121 15.3,122 15.3,123 15.3,124 15.3,125 15.3,126 15.3,127 15.3,128 15.3,129 15.3,130 15.3,131 15.3,132 15.3,133 15.3,134 15.3,135 15.3,136 15.3,137 15.3,138 15.3,139 15.3,140 15.3,141 15.3,142 15.3,143 15.3,144 15.3,145 15.3,146 15.3,147 15.3,148 14.025,149 12.75,150 11.475,151 10.2,152 8.925,153 7.65"
	style="stroke:grey;stroke-width:0.25;fill:none"/>


<polyline
	points="1 6.375,2 5.1,3 3.825,4 2.55,5 1.275,6 0,7 0,8 0,9 0,10 0,11 0,12 0,13 0,14 0,15 0,16 0,17 0,18 0,19 0,20 0,21 0,22 0,23 0,24 0,25 0,26 0,27 0,28 0,29 0,30 0,31 0,32 0,33 0,34 0,35 0,36 0,37 0,38 0,39 0,40 0,41 0,42 0,43 0,44 0,45 0,46 0,47 0,48 0,49 0,50 0,51 0,52 0,53 0,54 0,55 0,56 0,57 0,58 0,59 0,60 0,61 0,62 0,63 0,64 0,65 0,66 0,67 0,68 0,69 0,70 0,71 0,72 0,73 0,74 0,75 0,76 0,77 0,78 0,79 0,80 0,81 0,82 0,83 0,84 0,85 2.55,86 2.55,87 2.55,88 2.55,89 2.55,90 5.1,91 2.55,92 2.55,93 2.55,94 2.55,95 2.55,96 0,97 0,98 0,99 0,100 0,101 0,102 2.55,103 5.1,104 7.65,105 10.2,106 12.75,107 15.3,108 15.3,109 15.3,110 15.3,111 15.3,112 15.3,113 15.3,114 15.3,115 12.75,116 10.2,117 7.65,118 5.1,119 2.55,120 0,121 2.55,122 5.1,123 7.65,124 10.2,125 12.75,126 15.3,127 15.3,128 15.3,129 12.75,130 10.2,131 10.2,132 10.2,133 10.2,134 10.2,135 12.75,136 15.3,137 15.3,138 15.3,139 15.3,140 15.3,141 15.3,142 15.3,143 15.3,144 15.3,145 15.3,146 15.3,147 15.3,148 14.025,149 12.75,150 11.475,151 10.2,152 8.925,153 7.65"
	style="stroke:grey;stroke-width:0.25;fill:none"/>


<polyline
	points="1 6.375,2 5.1,3 3.825,4 2.55,5 1.275,6 0,7 0,8 0,9 0,10 0,11 0,12 0,13 0,14 0,15 0,16 0,17 0,18 0,19 0,20 0,21 0,22 0,23 0,24 0,25 0,26 0,27 0,28 0,29 0,30 0,31 0,32 0,33 0,34 0,35 0,36 0,37 0,38 0,39 0,40 0,41 0,42 0,43 0,44 0,45 0,46 0,47 0,48 0,49 0,50 0,51 0,52 0,53 0,54 0,55 0,56 0,57 0,58 0,59 0,60 0,61 0,62 0,63 0,64 0,65 0,66 0,67 0,68 0,69 0,70 0,71 0,72 0,73 0,74 0,75 0,76 0,77 0,78 0,79 0,80 0,81 0,82 0,83 0,84 0,85 0,86 0,87 0,88 0,89 0,90 0,91 0,92 0,93 0,94 0,95 0,96 0,97 0,98 0,99 0,100 0,101 0,102 0,103 2.55,104 5.1,105 7.65,106 10.2,107 12.75,108 15.3,109 15.3,110 15.3,111 15.3,112 15.3,113 15.3,114 15.3,115 15.3,116 15.3,117 15.3,118 15.3,119 15.3,120 15.3,121 15.3,122 15.3,123 15.3,124 15.3,125 15.3,126 15.3,127 15.3,128 15.3,129 15.3,130 15.3,131 15.3,132 15.3,133 15.3,134 15.3,135 15.3,136 15.3,137 15.3,138 15.3,139 15.3,140 15.3,141 15.3,142 15.3,143 15.3,144 15.3,145 15.3,146 15.3,147 15.3,148 14.025,149 12.75,150 11.475,151 10.2,152 8.925,153 7.65"
	style="stroke:grey;stroke-width:0.25;fill:none"/>


<polyline
	points="1 6.375,2 5.1,3 3.825,4 2.55,5 1.275,6 0,7 0,8 0,9 0,10 0,11 0,12 0,13 0,14 0,15 0,16 0,17 0,18 0,19 0,20 0,21 0,22 0,23 0,24 0,25 0,26 0,27 0,28 0,29 0,30 0,31 0,32 0,33 0,34 0,35 0,36 0,37 0,38 0,39 0,40 0,41 0,42 0,43 0,44 0,45 0,46 0,47 0,48 0,49 0,50 0,51 0,52 0,53 0,54 0,55 0,56 0,57 0,58 0,59 0,60 0,61 0,62 0,63 0,64 0,65 0,66 0,67 0,68 0,69 0,70 0,71 0,72 0,73 0,74 0,75 0,76 0,77 0,78 0,79 0,80 0,81 0,82 0,83 0,84 0,85 0,86 0,87 0,88 0,89 0,90 0,91 0,92 0,93 0,94 0,95 0,96 0,97 0,98 0,99 0,100 0,101 0,102 0,103 2.55,104 5.1,105 7.65,106 10.2,107 12.75,108 15.3,109 15.3,110 15.3,111 15.3,112 15.3,113 15.3,114 15.3,115 12.75,116 10.2,117 7.65,118 5.1,119 2.55,120 2.55,121 5.1,122 7.65,123 10.2,124 12.75,125 15.3,126 15.3,127 15.3,128 12.75,129 12.75,130 12.75,131 12.75,132 12.75,133 12.75,134 15.3,135 15.3,136 15.3,137 15.3,138 15.3,139 15.3,140 15.3,141 15.3,142 15.3,143 15.3,144 15.3,145 15.3,146 15.3,147 15.3,148 14.025,149 12.75,150 11.475,151 10.2,152 8.925,153 7.65"
	style="stroke:grey;stroke-width:0.25;fill:none"/>


<polyline
	points="1 6.375,2 5.1,3 3.825,4 2.55,5 1.275,6 0,7 0,8 0,9 0,10 0,11 0,12 0,13 0,14 0,15 0,16 0,17 0,18 0,19 0,20 0,21 0,22 0,23 0,24 0,25 0,26 0,27 0,28 0,29 0,30 0,31 0,32 0,33 0,34 0,35 0,36 0,37 0,38 0,39 0,40 0,41 0,42 0,43 0,44 0,45 0,46 0,47 0,48 0,49 0,50 0,51 0,52 0,53 0,54 0,55 0,56 0,57 0,58 0,59 0,60 0,61 0,62 0,63 0,64 0,65 0,66 0,67 0,68 0,69 0,70 0,71 0,72 0,73 0,74 0,75 0,76 0,77 0,78 0,79 0,80 0,81 0,82 0,83 0,84 0,85 0,86 0,87 0,88 0,89 0,90 0,91 0,92 0,93 0,94 0,95 0,96 0,97 0,98 0,99 0,100 0,101 0,102 2.55,103 5.1,104 7.65,105 10.2,106 12.75,107 15.3,108 15.3,109 15.3,110 15.3,111 15.3,112 15.3,113 15.3,114 15.3,115 12.75,116 10.2,117 7.65,118 5.1,119 5.1,120 5.1,121 7.65,122 10.2,123 12.75,124 15.3,125 15.3,126 15.3,127 15.3,128 15.3,129 15.3,130 15.3,131 15.3,132 15.3,133 15.3,134 15.3,135 15.3,136 15.3,137 15.3,138 15.3,139 15.3,140 15.3,141 15.3,142 15.3,143 15.3,144 15.3,145 15.3,146 15.3,147 15.3,148 14.025,149 12.75,150 11.475,151 10.2,152 8.925,153 7.65"
	style="stroke:grey;stroke-width:0.25;fill:none"/>


<polyline
	points="1 6.375,2 5.1,3 3.825,4 2.55,5 1.275,6 0,7 0,8 0,9 0,10 0,11 0,12 0,13 0,14 0,15 0,16 0,17 0,18 0,19 0,20 0,21 0,22 0,23 0,24 0,25 0,26 0,27 0,28 0,29 0,30 0,31 0,32 0,33 0,34 0,35 0,36 0,37 0,38 0,39 0,40 0,41 0,42 0,43 0,44 0,45 0,46 0,47 0,48 0,49 0,50 0,51 0,52 0,53 0,54 0,55 0,56 0,57 0,58 0,59 0,60 0,61 0,62 0,63 0,64 0,65 0,66 0,67 0,68 0,69 0,70 0,71 0,72 0,73 0,74 0,75 0,76 0,77 0,78 0,79 0,80 0,81 0,82 0,83 0,84 0,85 0,86 0,87 0,88 0,89 0,90 0,91 0,92 0,93 0,94 0,95 0,96 0,97 0,98 0,99 0,100 0,101 0,102 0,103 0,104 0,105 0,106 0,107 0,108 0,109 0,110 0,111 0,112 2.55,113 2.55,114 2.55,115 5.1,116 7.65,117 7.65,118 5.1,119 7.65,120 10.2,121 10.2,122 10.2,123 12.75,124 15.3,125 15.3,126 15.3,127 15.3,128 15.3,129 15.3,130 15.3,131 15.3,132 15.3,133 15.3,134 15.3,135 15.3,136 15.3,137 15.3,138 15.3,139 15.3,140 15.3,141 15.3,142 15.3,143 15.3,144 15.3,145 15.3,146 15.3,147 15.3,148 14.025,149 12.75,150 11.475,151 10.2,152 8.925,153 7.65"
	style="stroke:grey;stroke-width:0.25;fill:none"/>


<polyline
	points="1 6.375,2 5.1,3 3.825,4 2.55,5 1.275,6 0,7 0,8 0,9 0,10 0,11 0,12 0,13 0,14 0,15 0,16 0,17 0,18 0,19 0,20 0,21 0,22 0,23 0,24 0,25 0,26 0,27 0,28 0,29 0,30 0,31 0,32 0,33 0,34 0,35 0,36 0,37 0,38 0,39 0,40 0,41 0,42 0,43 0,44 0,45 0,46 0,47 0,48 0,49 0,50 0,51 0,52 0,53 0,54 0,55 0,56 0,57 0,58 0,59 0,60 0,61 0,62 0,63 0,64 0,65 0,66 0,67 0,68 0,69 0,70 0,71 0,72 0,73 0,74 0,75 0,76 0,77 2.55,78 2.55,79 2.55,80 2.55,81 2.55,82 2.55,83 0,84 0,85 0,86 0,87 0,88 0,89 0,90 0,91 0,92 0,93 0,94 0,95 0,96 0,97 0,98 0,99 0,100 0,101 0,102 0,103 0,104 0,105 0,106 0,107 0,108 0,109 0,110 0,111 0,112 0,113 0,114 0,115 0,116 0,117 0,118 0,119 0,120 0,121 0,122 0,123 0,124 0,125 0,126 0,127 0,128 0,129 0,130 0,131 0,132 0,133 0,134 0,135 0,136 0,137 0,138 0,139 2.55,140 2.55,141 2.55,142 2.55,143 5.1,144 7.65,145 7.65,146 10.2,147 12.75,148 14.025,149 12.75,150 11.475,151 10.2,152 8.925,153 7.65"
	style="stroke:grey;stroke-width:0.25;fill:none"/>


<polyline
	points="1 6.375,2 5.1,3 3.825,4 2.55,5 1.275,6 0,7 0,8 0,9 0,10 0,11 0,12 0,13 0,14 0,15 0,16 0,17 0,18 0,19 0,20 0,21 0,22 0,23 0,24 0,25 0,26 0,27 0,28 0,29 0,30 0,31 0,32 0,33 0,34 0,35 0,36 0,37 0,38 0,39 0,40 0,41 0,42 0,43 0,44 0,45 0,46 0,47 0,48 0,49 0,50 0,51 0,52 0,53 0,54 0,55 0,56 0,57 0,58 0,59 0,60 0,61 0,62 0,63 0,64 0,65 0,66 0,67 0,68 0,69 0,70 0,71 0,72 0,73 0,74 0,75 0,76 0,77 0,78 0,79 0,80 0,81 0,82 0,83 0,84 0,85 0,86 0,87 0,88 0,89 2.55,90 5.1,91 5.1,92 5.1,93 5.1,94 5.1,95 2.55,96 0,97 0,98 0,99 0,100 0,101 0,102 0,103 0,104 2.55,105 5.1,106 5.1,107 5.1,108 5.1,109 5.1,110 2.55,111 2.55,112 5.1,113 7.65,114 10.2,115 12.75,116 15.3,117 15.3,118 15.3,119 15.3,120 12.75,121 10.2,122 7.65,123 7.65,124 7.65,125 7.65,126 10.2,127 12.75,128 15.3,129 15.3,130 15.3,131 15.3,132 15.3,133 15.3,134 15.3,135 15.3,136 15.3,137 15.3,138 15.3,139 15.3,140 15.3,141 15.3,142 15.3,143 15.3,144 15.3,145 15.3,146 15.3,147 15.3,148 14.025,149 12.75,150 11.475,151 10.2,152 8.925,153 7.65"
	style="stroke:grey;stroke-width:0.25;fill:none"/>


<polyline
	points="1 6.375,2 5.1,3 3.825,4 2.55,5 1.275,6 0,7 0,8 0,9 0,10 0,11 0,12 0,13 0,14 0,15 0,16 0,17 0,18 0,19 0,20 0,21 0,22 0,23 0,24 0,25 0,26 0,27 0,28 0,29 0,30 0,31 0,32 0,33 0,34 0,35 0,36 0,37 0,38 0,39 0,40 0,41 0,42 0,43 0,44 0,45 0,46 0,47 0,48 0,49 0,50 0,51 0,52 0,53 0,54 0,55 0,56 0,57 0,58 0,59 0,60 0,61 0,62 0,63 0,64 0,65 0,66 0,67 0,68 0,69 0,70 0,71 0,72 0,73 0,74 0,75 0,76 0,77 0,78 0,79 0,80 0,81 0,82 0,83 0,84 0,85 0,86 0,87 0,88 0,89 0,90 0,91 0,92 0,93 0,94 0,95 0,96 0,97 0,98 0,99 0,100 0,101 0,102 0,103 0,104 0,105 0,106 2.55,107 5.1,108 7.65,109 10.2,110 12.75,111 15.3,112 15.3,113 12.75,114 10.2,115 7.65,116 5.1,117 2.55,118 0,119 0,120 0,121 0,122 0,123 0,124 0,125 2.55,126 5.1,127 7.65,128 10.2,129 12.75,130 15.3,131 15.3,132 15.3,133 15.3,134 15.3,135 15.3,136 15.3,137 15.3,138 15.3,139 15.3,140 15.3,141 15.3,142 15.3,143 15.3,144 15.3,145 15.3,146 15.3,147 15.3,148 14.025,149 12.75,150 11.475,151 10.2,152 8.925,153 7.65"
	style="stroke:grey;stroke-width:0.25;fill:none"/>


<polyline
	points="1 6.375,2 5.1,3 3.825,4 2.55,5 1.275,6 0,7 0,8 0,9 0,10 0,11 0,12 0,13 0,14 0,15 0,16 0,17 0,18 0,19 0,20 0,21 0,22 0,23 0,24 0,25 0,26 0,27 0,28 0,29 0,30 0,31 0,32 0,33 0,34 0,35 0,36 0,37 0,38 0,39 0,40 0,41 0,42 0,43 0,44 0,45 0,46 0,47 0,48 0,49 0,50 0,51 0,52 0,53 0,54 0,55 0,56 0,57 0,58 0,59 0,60 0,61 0,62 0,63 0,64 0,65 0,66 0,67 2.55,68 2.55,69 2.55,70 2.55,71 2.55,72 2.55,73 0,74 0,75 0,76 0,77 0,78 0,79 0,80 0,81 0,82 0,83 0,84 0,85 0,86 0,87 0,88 0,89 0,90 0,91 2.55,92 5.1,93 5.1,94 5.1,95 5.1,96 5.1,97 2.55,98 0,99 0,100 0,101 0,102 0,103 0,104 0,105 0,106 0,107 0,108 0,109 0,110 0,111 0,112 0,113 0,114 0,115 0,116 0,117 0,118 0,119 0,120 0,121 0,122 0,123 0,124 0,125 0,126 2.55,127 5.1,128 7.65,129 10.2,130 10.2,131 10.2,132 7.65,133 5.1,134 2.55,135 0,136 0,137 2.55,138 5.1,139 7.65,140 10.2,141 12.75,142 15.3,143 15.3,144 15.3,145 15.3,146 15.3,147 15.3,148 14.025,149 12.75,150 11.475,151 10.2,152 8.925,153 7.65"
	style="stroke:grey;stroke-width:0.25;fill:none"/>


<polyline
	points="1 6.375,2 5.1,3 3.825,4 2.55,5 1.275,6 0,7 0,8 0,9 0,10 0,11 0,12 0,13 0,14 0,15 0,16 0,17 0,18 0,19 0,20 0,21 0,22 0,23 0,24 0,25 0,26 0,27 0,28 0,29 0,30 0,31 0,32 0,33 0,34 0,35 0,36 0,37 0,38 0,39 0,40 0,41 0,42 0,43 0,44 0,45 0,46 0,47 0,48 0,49 0,50 0,51 0,52 0,53 0,54 0,55 0,56 0,57 0,58 0,59 0,60 0,61 0,62 0,63 0,64 0,65 0,66 0,67 0,68 0,69 0,70 0,71 0,72 0,73 0,74 0,75 0,76 0,77 0,78 0,79 0,80 0,81 0,82 0,83 0,84 0,85 0,86 0,87 0,88 0,89 0,90 0,91 0,92 0,93 0,94 0,95 0,96 0,97 0,98 0,99 0,100 0,101 0,102 0,103 0,104 2.55,105 2.55,106 2.55,107 2.55,108 5.1,109 5.1,110 2.55,111 2.55,112 5.1,113 5.1,114 2.55,115 5.1,116 7.65,117 7.65,118 5.1,119 7.65,120 10.2,121 7.65,122 7.65,123 10.2,124 12.75,125 12.75,126 12.75,127 15.3,128 15.3,129 15.3,130 15.3,131 15.3,132 15.3,133 15.3,134 15.3,135 15.3,136 15.3,137 15.3,138 15.3,139 15.3,140 15.3,141 15.3,142 15.3,143 15.3,144 15.3,145 15.3,146 15.3,147 15.3,148 14.025,149 12.75,150 11.475,151 10.2,152 8.925,153 7.65"
	style="stroke:grey;stroke-width:0.25;fill:none"/>


<polyline
	points="1 6.375,2 5.1,3 3.825,4 2.55,5 1.275,6 0,7 0,8 0,9 0,10 0,11 0,12 0,13 0,14 0,15 0,16 0,17 0,18 0,19 0,20 0,21 0,22 0,23 0,24 0,25 0,26 0,27 0,28 0,29 0,30 0,31 0,32 0,33 0,34 0,35 0,36 0,37 0,38 0,39 0,40 0,41 0,42 0,43 0,44 0,45 0,46 0,47 0,48 0,49 0,50 0,51 0,52 0,53 0,54 0,55 0,56 0,57 0,58 0,59 0,60 0,61 0,62 0,63 2.55,64 5.1,65 5.1,66 5.1,67 5.1,68 5.1,69 2.55,70 0,71 0,72 0,73 0,74 0,75 0,76 0,77 0,78 0,79 0,80 0,81 0,82 0,83 0,84 0,85 0,86 0,87 0,88 0,89 0,90 0,91 0,92 0,93 0,94 0,95 0,96 0,97 0,98 0,99 0,100 0,101 0,102 0,103 2.55,104 5.1,105 7.65,106 10.2,107 12.75,108 15.3,109 12.75,110 10.2,111 10.2,112 10.2,113 10.2,114 10.2,115 12.75,116 15.3,117 15.3,118 15.3,119 15.3,120 15.3,121 15.3,122 15.3,123 15.3,124 15.3,125 15.3,126 15.3,127 15.3,128 15.3,129 15.3,130 15.3,131 15.3,132 15.3,133 15.3,134 15.3,135 15.3,136 15.3,137 15.3,138 15.3,139 15.3,140 15.3,141 15.3,142 12.75,143 12.75,144 12.75,145 12.75,146 12.75,147 12.75,148 14.025,149 12.75,150 11.475,151 10.2,152 8.925,153 7.65"
	style="stroke:grey;stroke-width:0.25;fill:none"/>


<polyline
	points="1 6.375,2 5.1,3 3.825,4 2.55,5 1.275,6 0,7 0,8 0,9 0,10 0,11 0,12 0,13 0,14 0,15 0,16 0,17 0,18 0,19 0,20 0,21 0,22 0,23 0,24 0,25 0,26 0,27 0,28 0,29 0,30 0,31 0,32 0,33 0,34 0,35 0,36 0,37 0,38 0,39 0,40 0,41 0,42 0,43 0,44 0,45 0,46 0,47 0,48 0,49 0,50 0,51 0,52 0,53 0,54 0,55 0,56 0,57 0,58 0,59 0,60 0,61 0,62 0,63 2.55,64 5.1,65 5.1,66 5.1,67 5.1,68 5.1,69 2.55,70 0,71 0,72 0,73 0,74 0,75 0,76 0,77 0,78 0,79 0,80 0,81 0,82 0,83 0,84 0,85 0,86 0,87 0,88 0,89 0,90 0,91 0,92 0,93 0,94 0,95 0,96 0,97 0,98 0,99 0,100 0,101 0,102 0,103 0,104 0,105 0,106 2.55,107 5.1,108 7.65,109 10.2,110 12.75,111 15.3,112 15.3,113 12.75,114 10.2,115 10.2,116 10.2,117 10.2,118 10.2,119 12.75,120 15.3,121 15.3,122 15.3,123 15.3,124 15.3,125 15.3,126 15.3,127 15.3,128 15.3,129 15.3,130 15.3,131 15.3,132 15.3,133 15.3,134 15.3,135 15.3,136 15.3,137 15.3,138 15.3,139 15.3,140 15.3,141 15.3,142 15.3,143 15.3,144 15.3,145 15.3,146 15.3,147 15.3,148 14.025,149 12.75,150 11.475,151 10.2,152 8.925,153 7.65"
	style="stroke:grey;stroke-width:0.25;fill:none"/>


<polyline
	points="1 6.375,2 5.1,3 3.825,4 2.55,5 1.275,6 0,7 0,8 0,9 0,10 0,11 0,12 0,13 0,14 0,15 0,16 0,17 0,18 0,19 0,20 0,21 0,22 0,23 0,24 0,25 0,26 0,27 0,28 0,29 0,30 0,31 0,32 0,33 0,34 0,35 0,36 0,37 0,38 0,39 0,40 0,41 0,42 0,43 0,44 0,45 0,46 0,47 0,48 0,49 0,50 0,51 0,52 0,53 0,54 0,55 0,56 0,57 0,58 0,59 0,60 0,61 2.55,62 5.1,63 5.1,64 5.1,65 5.1,66 5.1,67 2.55,68 0,69 0,70 0,71 0,72 0,73 0,74 0,75 0,76 0,77 0,78 0,79 0,80 0,81 0,82 2.55,83 5.1,84 7.65,85 10.2,86 10.2,87 10.2,88 7.65,89 5.1,90 2.55,91 0,92 0,93 0,94 0,95 0,96 0,97 0,98 0,99 0,100 0,101 0,102 0,103 2.55,104 2.55,105 5.1,106 5.1,107 7.65,108 7.65,109 5.1,110 5.1,111 2.55,112 5.1,113 2.55,114 2.55,115 5.1,116 7.65,117 10.2,118 7.65,119 10.2,120 12.75,121 12.75,122 12.75,123 12.75,124 15.3,125 15.3,126 15.3,127 15.3,128 15.3,129 15.3,130 15.3,131 15.3,132 15.3,133 15.3,134 15.3,135 15.3,136 15.3,137 15.3,138 15.3,139 15.3,140 15.3,141 15.3,142 15.3,143 15.3,144 15.3,145 15.3,146 15.3,147 15.3,148 14.025,149 12.75,150 11.475,151 10.2,152 8.925,153 7.65"
	style="stroke:grey;stroke-width:0.25;fill:none"/>


<polyline
	points="1 6.375,2 5.1,3 3.825,4 2.55,5 1.275,6 0,7 0,8 0,9 0,10 0,11 0,12 0,13 0,14 0,15 0,16 0,17 0,18 0,19 0,20 0,21 0,22 0,23 0,24 0,25 0,26 0,27 0,28 0,29 0,30 0,31 0,32 0,33 0,34 0,35 0,36 0,37 0,38 0,39 0,40 0,41 0,42 0,43 0,44 0,45 0,46 0,47 0,48 0,49 0,50 0,51 0,52 0,53 0,54 0,55 0,56 0,57 0,58 0,59 0,60 0,61 0,62 0,63 0,64 0,65 0,66 0,67 0,68 0,69 0,70 0,71 0,72 0,73 0,74 0,75 0,76 0,77 0,78 0,79 0,80 0,81 0,82 0,83 0,84 0,85 0,86 0,87 0,88 0,89 2.55,90 5.1,91 5.1,92 5.1,93 5.1,94 5.1,95 2.55,96 0,97 0,98 0,99 0,100 0,101 0,102 0,103 2.55,104 5.1,105 7.65,106 7.65,107 7.65,108 7.65,109 5.1,110 2.55,111 2.55,112 5.1,113 7.65,114 10.2,115 12.75,116 15.3,117 15.3,118 15.3,119 15.3,120 12.75,121 10.2,122 7.65,123 7.65,124 7.65,125 7.65,126 10.2,127 12.75,128 15.3,129 15.3,130 15.3,131 15.3,132 15.3,133 15.3,134 15.3,135 15.3,136 15.3,137 15.3,138 15.3,139 15.3,140 15.3,141 15.3,142 15.3,143 15.3,144 15.3,145 15.3,146 15.3,147 15.3,148 14.025,149 12.75,150 11.475,151 10.2,152 8.925,153 7.65"
	style="stroke:grey;stroke-width:0.25;fill:none"/>


<polyline
	points="1 6.375,2 5.1,3 3.825,4 2.55,5 1.275,6 0,7 0,8 0,9 0,10 0,11 0,12 0,13 0,14 0,15 0,16 0,17 0,18 0,19 0,20 0,21 0,22 0,23 0,24 0,25 0,26 0,27 0,28 0,29 0,30 0,31 0,32 0,33 0,34 0,35 0,36 0,37 0,38 0,39 0,40 0,41 0,42 0,43 0,44 0,45 0,46 0,47 0,48 0,49 0,50 0,51 0,52 0,53 0,54 0,55 0,56 0,57 0,58 0,59 0,60 0,61 0,62 0,63 0,64 0,65 0,66 0,67 0,68 0,69 0,70 0,71 0,72 0,73 0,74 0,75 0,76 0,77 0,78 0,79 0,80 0,81 0,82 0,83 0,84 0,85 2.55,86 2.55,87 2.55,88 2.55,89 2.55,90 5.1,91 2.55,92 2.55,93 2.55,94 2.55,95 2.55,96 0,97 0,98 0,99 0,100 0,101 0,102 0,103 0,104 0,105 0,106 2.55,107 5.1,108 7.65,109 10.2,110 12.75,111 15.3,112 15.3,113 12.75,114 10.2,115 7.65,116 5.1,117 2.55,118 0,119 0,120 0,121 0,122 0,123 0,124 2.55,125 5.1,126 7.65,127 10.2,128 12.75,129 15.3,130 15.3,131 15.3,132 15.3,133 12.75,134 12.75,135 10.2,136 7.65,137 5.1,138 5.1,139 7.65,140 7.65,141 10.2,142 12.75,143 15.3,144 15.3,145 15.3,146 15.3,147 15.3,148 14.025,149 12.75,150 11.475,151 10.2,152 8.925,153 7.65"
	style="stroke:grey;stroke-width:0.25;fill:none"/>


<polyline
	points="1 6.375,2 5.1,3 3.825,4 2.55,5 1.275,6 0,7 0,8 0,9 0,10 0,11 0,12 0,13 0,14 0,15 0,16 0,17 0,18 0,19 0,20 0,21 0,22 0,23 0,24 0,25 0,26 0,27 0,28 0,29 0,30 0,31 0,32 0,33 0,34 0,35 0,36 0,37 0,38 0,39 0,40 0,41 0,42 0,43 0,44 0,45 0,46 0,47 0,48 0,49 0,50 0,51 0,52 0,53 0,54 0,55 0,56 0,57 0,58 0,59 0,60 0,61 0,62 0,63 2.55,64 5.1,65 5.1,66 5.1,67 5.1,68 5.1,69 2.55,70 0,71 0,72 0,73 0,74 0,75 0,76 0,77 0,78 0,79 0,80 0,81 0,82 0,83 0,84 0,85 0,86 0,87 0,88 0,89 0,90 0,91 2.55,92 5.1,93 5.1,94 5.1,95 5.1,96 5.1,97 2.55,98 0,99 0,100 0,101 0,102 0,103 0,104 0,105 0,106 0,107 0,108 0,109 0,110 0,111 0,112 0,113 0,114 0,115 0,116 0,117 0,118 0,119 0,120 0,121 0,122 0,123 0,124 0,125 0,126 0,127 2.55,128 2.55,129 2.55,130 2.55,131 2.55,132 2.55,133 0,134 0,135 0,136 0,137 0,138 2.55,139 5.1,140 7.65,141 10.2,142 12.75,143 15.3,144 15.3,145 15.3,146 15.3,147 15.3,148 14.025,149 12.75,150 11.475,151 10.2,152 8.925,153 7.65"
	style="stroke:grey;stroke-width:0.25;fill:none"/>


<polyline
	points="1 6.375,2 5.1,3 3.825,4 2.55,5 1.275,6 0,7 0,8 0,9 0,10 0,11 0,12 0,13 0,14 0,15 0,16 0,17 0,18 0,19 0,20 0,21 0,22 0,23 0,24 0,25 0,26 0,27 0,28 0,29 0,30 0,31 0,32 0,33 0,34 0,35 0,36 0,37 0,38 0,39 0,40 0,41 0,42 0,43 0,44 0,45 0,46 0,47 0,48 0,49 0,50 0,51 0,52 0,53 0,54 0,55 0,56 0,57 0,58 0,59 0,60 0,61 0,62 0,63 0,64 0,65 0,66 0,67 0,68 0,69 0,70 0,71 0,72 0,73 0,74 0,75 0,76 0,77 0,78 0,79 0,80 0,81 0,82 0,83 0,84 0,85 0,86 0,87 0,88 0,89 0,90 0,91 0,92 0,93 0,94 0,95 0,96 0,97 0,98 0,99 0,100 0,101 0,102 2.55,103 2.55,104 5.1,105 7.65,106 10.2,107 12.75,108 12.75,109 15.3,110 15.3,111 15.3,112 15.3,113 15.3,114 15.3,115 15.3,116 15.3,117 15.3,118 15.3,119 15.3,120 15.3,121 15.3,122 15.3,123 15.3,124 15.3,125 15.3,126 15.3,127 15.3,128 15.3,129 15.3,130 15.3,131 15.3,132 15.3,133 15.3,134 15.3,135 15.3,136 15.3,137 15.3,138 15.3,139 15.3,140 15.3,141 15.3,142 15.3,143 15.3,144 15.3,145 15.3,146 15.3,147 15.3,148 14.025,149 12.75,150 11.475,151 10.2,152 8.925,153 7.65"
	style="stroke:grey;stroke-width:0.25;fill:none"/>


<polyline
	points="1 6.375,2 5.1,3 3.825,4 2.55,5 1.275,6 0,7 0,8 0,9 0,10 0,11 0,12 0,13 0,14 0,15 0,16 0,17 0,18 0,19 0,20 0,21 0,22 0,23 0,24 0,25 0,26 0,27 0,28 0,29 0,30 0,31 0,32 0,33 0,34 0,35 0,36 0,37 0,38 0,39 0,40 0,41 0,42 0,43 0,44 0,45 0,46 0,47 0,48 0,49 0,50 0,51 0,52 0,53 0,54 0,55 0,56 0,57 0,58 0,59 0,60 0,61 2.55,62 5.1,63 7.65,64 10.2,65 10.2,66 10.2,67 7.65,68 5.1,69 2.55,70 0,71 0,72 0,73 0,74 0,75 0,76 0,77 0,78 0,79 0,80 0,81 0,82 0,83 0,84 0,85 0,86 0,87 0,88 0,89 0,90 0,91 0,92 2.55,93 5.1,94 5.1,95 5.1,96 5.1,97 5.1,98 2.55,99 0,100 0,101 0,102 2.55,103 5.1,104 7.65,105 10.2,106 12.75,107 12.75,108 10.2,109 7.65,110 5.1,111 5.1,112 5.1,113 7.65,114 10.2,115 12.75,116 15.3,117 12.75,118 10.2,119 10.2,120 7.65,121 5.1,122 2.55,123 5.1,124 7.65,125 7.65,126 10.2,127 12.75,128 15.3,129 15.3,130 15.3,131 15.3,132 15.3,133 15.3,134 15.3,135 15.3,136 15.3,137 15.3,138 15.3,139 15.3,140 15.3,141 15.3,142 15.3,143 15.3,144 15.3,145 15.3,146 15.3,147 15.3,148 14.025,149 12.75,150 11.475,151 10.2,152 8.925,153 7.65"
	style="stroke:grey;stroke-width:0.25;fill:none"/>


<polyline
	points="1 6.375,2 5.1,3 3.825,4 2.55,5 1.275,6 0,7 0,8 0,9 0,10 0,11 0,12 0,13 0,14 0,15 0,16 0,17 0,18 0,19 0,20 0,21 0,22 0,23 0,24 0,25 0,26 0,27 0,28 0,29 0,30 0,31 0,32 0,33 0,34 0,35 0,36 0,37 0,38 0,39 0,40 0,41 0,42 0,43 0,44 0,45 0,46 0,47 0,48 0,49 0,50 0,51 0,52 0,53 0,54 0,55 0,56 0,57 0,58 0,59 0,60 0,61 0,62 0,63 0,64 0,65 0,66 0,67 0,68 0,69 0,70 0,71 0,72 0,73 0,74 0,75 0,76 0,77 0,78 0,79 0,80 0,81 0,82 0,83 0,84 0,85 0,86 0,87 0,88 0,89 0,90 0,91 0,92 0,93 0,94 0,95 0,96 0,97 0,98 0,99 0,100 0,101 0,102 0,103 2.55,104 2.55,105 2.55,106 2.55,107 5.1,108 7.65,109 7.65,110 10.2,111 12.75,112 12.75,113 10.2,114 7.65,115 5.1,116 2.55,117 0,118 0,119 0,120 0,121 0,122 2.55,123 5.1,124 7.65,125 10.2,126 12.75,127 15.3,128 15.3,129 15.3,130 15.3,131 12.75,132 10.2,133 7.65,134 5.1,135 5.1,136 5.1,137 7.65,138 10.2,139 12.75,140 15.3,141 15.3,142 15.3,143 15.3,144 15.3,145 15.3,146 15.3,147 15.3,148 14.025,149 12.75,150 11.475,151 10.2,152 8.925,153 7.65"
	style="stroke:grey;stroke-width:0.25;fill:none"/>


<polyline
	points="1 6.375,2 5.1,3 3.825,4 2.55,5 1.275,6 0,7 0,8 0,9 0,10 0,11 0,12 0,13 0,14 0,15 0,16 0,17 0,18 0,19 0,20 0,21 0,22 0,23 0,24 0,25 0,26 0,27 0,28 0,29 0,30 0,31 0,32 0,33 0,34 0,35 0,36 0,37 0,38 0,39 0,40 0,41 0,42 0,43 0,44 0,45 0,46 0,47 0,48 0,49 0,50 0,51 0,52 0,53 0,54 0,55 0,56 0,57 0,58 0,59 0,60 0,61 0,62 0,63 0,64 0,65 0,66 0,67 0,68 0,69 0,70 0,71 0,72 0,73 0,74 0,75 0,76 0,77 0,78 0,79 0,80 0,81 0,82 0,83 0,84 0,85 0,86 0,87 0,88 0,89 0,90 0,91 0,92 0,93 0,94 0,95 0,96 0,97 0,98 0,99 0,100 0,101 0,102 0,103 2.55,104 2.55,105 5.1,106 5.1,107 7.65,108 7.65,109 10.2,110 10.2,111 12.75,112 12.75,113 10.2,114 10.2,115 12.75,116 10.2,117 7.65,118 5.1,119 7.65,120 10.2,121 7.65,122 7.65,123 10.2,124 12.75,125 12.75,126 15.3,127 15.3,128 15.3,129 15.3,130 15.3,131 15.3,132 15.3,133 15.3,134 15.3,135 15.3,136 15.3,137 15.3,138 15.3,139 15.3,140 15.3,141 15.3,142 15.3,143 15.3,144 15.3,145 15.3,146 15.3,147 15.3,148 14.025,149 12.75,150 11.475,151 10.2,152 8.925,153 7.65"
	style="stroke:black;stroke-width:2;fill:none"/>


<polygon
     points="0 7.65,1 6.375,2 5.1,3 3.825,4 2.55,5 1.275,6 0,7 0,8 0,9 0,10 0,11 0,12 0,13 0,14 0,15 0,16 0,17 0,18 0,19 0,20 0,21 0,22 0,23 0,24 0,25 0,26 0,27 0,28 0,29 0,30 0,31 0,32 0,33 0,34 0,35 0,36 0,37 0,38 0,39 0,40 0,41 0,42 0,43 0,44 0,45 0,46 0,47 0,48 0,49 0,50 0,51 0,52 0,53 0,54 0,55 0,56 0,57 0,58 0,59 0,60 0,61 0,62 0,63 0,64 0,65 0,66 0,67 0,68 0,69 0,70 0,71 0,72 0,73 0,74 0,75 0,76 0,77 0,78 0,79 0,80 0,81 0,82 0,83 0,84 0,85 0,86 0,87 0,88 0,89 0,90 0,91 0,92 0,93 0,94 0,95 0,96 0,97 0,98 0,99 0,100 0,101 0,102 0,103 2.55,104 2.55,105 5.1,106 5.1,107 7.65,108 7.65,109 7.65,110 7.65,111 7.65,112 7.65,113 7.65,114 7.65,115 7.65,116 7.65,117 7.65,118 5.1,119 7.65,120 7.65,121 7.65,122 7.65,123 7.65,124 7.65,125 7.65,126 7.65,127 7.65,128 7.65,129 7.65,130 7.65,131 7.65,132 7.65,133 7.65,134 7.65,135 7.65,136 7.65,137 7.65,138 7.65,139 7.65,140 7.65,141 7.65,142 7.65,143 7.65,144 7.65,145 7.65,146 7.65,147 7.65,148 7.65,149 7.65,150 7.65,151 7.65,152 7.65,153 7.65,153 7.65,0 7.65"
     style="stroke: none;stroke-width:2;fill:green;fill-opacity:0.3"/>
<polygon
     points="0 7.65,1 7.65,2 7.65,3 7.65,4 7.65,5 7.65,6 7.65,7 7.65,8 7.65,9 7.65,10 7.65,11 7.65,12 7.65,13 7.65,14 7.65,15 7.65,16 7.65,17 7.65,18 7.65,19 7.65,20 7.65,21 7.65,22 7.65,23 7.65,24 7.65,25 7.65,26 7.65,27 7.65,28 7.65,29 7.65,30 7.65,31 7.65,32 7.65,33 7.65,34 7.65,35 7.65,36 7.65,37 7.65,38 7.65,39 7.65,40 7.65,41 7.65,42 7.65,43 7.65,44 7.65,45 7.65,46 7.65,47 7.65,48 7.65,49 7.65,50 7.65,51 7.65,52 7.65,53 7.65,54 7.65,55 7.65,56 7.65,57 7.65,58 7.65,59 7.65,60 7.65,61 7.65,62 7.65,63 7.65,64 7.65,65 7.65,66 7.65,67 7.65,68 7.65,69 7.65,70 7.65,71 7.65,72 7.65,73 7.65,74 7.65,75 7.65,76 7.65,77 7.65,78 7.65,79 7.65,80 7.65,81 7.65,82 7.65,83 7.65,84 7.65,85 7.65,86 7.65,87 7.65,88 7.65,89 7.65,90 7.65,91 7.65,92 7.65,93 7.65,94 7.65,95 7.65,96 7.65,97 7.65,98 7.65,99 7.65,100 7.65,101 7.65,102 7.65,103 7.65,104 7.65,105 7.65,106 7.65,107 7.65,108 7.65,109 10.2,110 10.2,111 12.75,112 12.75,113 10.2,114 10.2,115 12.75,116 10.2,117 7.65,118 7.65,119 7.65,120 10.2,121 7.65,122 7.65,123 10.2,124 12.75,125 12.75,126 15.3,127 15.3,128 15.3,129 15.3,130 15.3,131 15.3,132 15.3,133 15.3,134 15.3,135 15.3,136 15.3,137 15.3,138 15.3,139 15.3,140 15.3,141 15.3,142 15.3,143 15.3,144 15.3,145 15.3,146 15.3,147 15.3,148 14.025,149 12.75,150 11.475,151 10.2,152 8.925,153 7.65,153 7.65,0 7.65"
     style="stroke: none;stroke-width:2;fill:red;fill-opacity:0.3"/>
     

</svg>


