<?xml version="1.0" encoding="UTF-8" standalone="no"?>
<!-- created by matrix_reduction.pl -->

<svg
   xmlns:svg="http://www.w3.org/2000/svg"
   xmlns="http://www.w3.org/2000/svg"
   version="1.0"
   width="169"
   height="16.9"
   id="svg2">

  <defs
     id="defs4" />

<line
     x1="0"
     y1="8.45"
     x2="169"
     y2="8.45"
     style="stroke: black;stroke-width:1.5;"
     id="line001" />

<line
     x1="0"
     y1="0"
     x2="0"
     y2="16.9"
     style="stroke: black;stroke-width:1.5;"
     id="line002" />

<line
     x1="0"
     y1="8.45"
     x2="-5"
     y2="8.45"
     style="stroke: black;stroke-width:1.5;"
     id="line003" />
     
<line
x1="0" y1="10.14" x2="-5" y2="10.14" style="stroke: black;stroke-width:1.5;" id="line004"/>
<line
x1="0" y1="6.76" x2="-5" y2="6.76" style="stroke: black;stroke-width:1.5;" id="line004"/>
<text
x="-15" y="6.76" text-anchor="end"
style="font-size:12px;font-family:Bitstream Vera Sans"
>0.2</text>
<text
x="-15" y="10.14" text-anchor="end"
style="font-size:12px;font-family:Bitstream Vera Sans"
>-0.2</text>
<line
x1="0" y1="11.83" x2="-5" y2="11.83" style="stroke: black;stroke-width:1.5;" id="line004"/>
<line
x1="0" y1="5.07" x2="-5" y2="5.07" style="stroke: black;stroke-width:1.5;" id="line004"/>
<text
x="-15" y="5.07" text-anchor="end"
style="font-size:12px;font-family:Bitstream Vera Sans"
>0.4</text>
<text
x="-15" y="11.83" text-anchor="end"
style="font-size:12px;font-family:Bitstream Vera Sans"
>-0.4</text>
<line
x1="0" y1="13.52" x2="-5" y2="13.52" style="stroke: black;stroke-width:1.5;" id="line004"/>
<line
x1="0" y1="3.38" x2="-5" y2="3.38" style="stroke: black;stroke-width:1.5;" id="line004"/>
<text
x="-15" y="3.38" text-anchor="end"
style="font-size:12px;font-family:Bitstream Vera Sans"
>0.6</text>
<text
x="-15" y="13.52" text-anchor="end"
style="font-size:12px;font-family:Bitstream Vera Sans"
>-0.6</text>
<line
x1="0" y1="15.21" x2="-5" y2="15.21" style="stroke: black;stroke-width:1.5;" id="line004"/>
<line
x1="0" y1="1.69" x2="-5" y2="1.69" style="stroke: black;stroke-width:1.5;" id="line004"/>
<text
x="-15" y="1.69" text-anchor="end"
style="font-size:12px;font-family:Bitstream Vera Sans"
>0.8</text>
<text
x="-15" y="15.21" text-anchor="end"
style="font-size:12px;font-family:Bitstream Vera Sans"
>-0.8</text>
<line
x1="0" y1="16.9" x2="-5" y2="16.9" style="stroke: black;stroke-width:1.5;" id="line004"/>
<line
x1="0" y1="-1.77635683940025e-15" x2="-5" y2="-1.77635683940025e-15" style="stroke: black;stroke-width:1.5;" id="line004"/>
<text
x="-15" y="-1.77635683940025e-15" text-anchor="end"
style="font-size:12px;font-family:Bitstream Vera Sans"
>1</text>
<text
x="-15" y="16.9" text-anchor="end"
style="font-size:12px;font-family:Bitstream Vera Sans"
>-1</text>
<line
x1="0" y1="8.45" x2="0" y2="13.45" style="stroke: black;stroke-width:1.5;" id="line005"/>
<line
x1="10" y1="8.45" x2="10" y2="13.45" style="stroke: black;stroke-width:0.5;" id="line005"/>
<line
x1="20" y1="8.45" x2="20" y2="13.45" style="stroke: black;stroke-width:0.5;" id="line005"/>
<line
x1="30" y1="8.45" x2="30" y2="13.45" style="stroke: black;stroke-width:0.5;" id="line005"/>
<line
x1="40" y1="8.45" x2="40" y2="13.45" style="stroke: black;stroke-width:0.5;" id="line005"/>
<line
x1="50" y1="8.45" x2="50" y2="13.45" style="stroke: black;stroke-width:0.5;" id="line005"/>
<line
x1="60" y1="8.45" x2="60" y2="13.45" style="stroke: black;stroke-width:0.5;" id="line005"/>
<line
x1="70" y1="8.45" x2="70" y2="13.45" style="stroke: black;stroke-width:0.5;" id="line005"/>
<line
x1="80" y1="8.45" x2="80" y2="13.45" style="stroke: black;stroke-width:0.5;" id="line005"/>
<line
x1="90" y1="8.45" x2="90" y2="13.45" style="stroke: black;stroke-width:0.5;" id="line005"/>
<line
x1="100" y1="8.45" x2="100" y2="13.45" style="stroke: black;stroke-width:1.5;" id="line005"/>
<line
x1="110" y1="8.45" x2="110" y2="13.45" style="stroke: black;stroke-width:0.5;" id="line005"/>
<line
x1="120" y1="8.45" x2="120" y2="13.45" style="stroke: black;stroke-width:0.5;" id="line005"/>
<line
x1="130" y1="8.45" x2="130" y2="13.45" style="stroke: black;stroke-width:0.5;" id="line005"/>
<line
x1="140" y1="8.45" x2="140" y2="13.45" style="stroke: black;stroke-width:0.5;" id="line005"/>
<line
x1="150" y1="8.45" x2="150" y2="13.45" style="stroke: black;stroke-width:0.5;" id="line005"/>
<line
x1="160" y1="8.45" x2="160" y2="13.45" style="stroke: black;stroke-width:0.5;" id="line005"/>

<polyline
	points="1 9.85833333333333,2 11.2666666666667,3 12.675,4 14.0833333333333,5 15.4916666666667,6 16.9,7 16.9,8 16.9,9 16.9,10 16.9,11 16.9,12 16.9,13 16.9,14 16.9,15 14.0833333333333,16 11.2666666666667,17 11.2666666666667,18 11.2666666666667,19 11.2666666666667,20 11.2666666666667,21 14.0833333333333,22 16.9,23 16.9,24 16.9,25 16.9,26 16.9,27 16.9,28 16.9,29 16.9,30 16.9,31 16.9,32 16.9,33 16.9,34 16.9,35 16.9,36 16.9,37 16.9,38 16.9,39 16.9,40 16.9,41 16.9,42 16.9,43 16.9,44 16.9,45 16.9,46 16.9,47 16.9,48 16.9,49 16.9,50 16.9,51 16.9,52 16.9,53 16.9,54 16.9,55 16.9,56 16.9,57 16.9,58 16.9,59 16.9,60 16.9,61 16.9,62 16.9,63 16.9,64 14.0833333333333,65 11.2666666666667,66 8.45,67 5.63333333333333,68 2.81666666666667,69 0,70 0,71 0,72 0,73 0,74 0,75 0,76 0,77 0,78 0,79 0,80 0,81 0,82 0,83 0,84 0,85 0,86 0,87 0,88 0,89 0,90 0,91 0,92 0,93 0,94 0,95 0,96 0,97 0,98 0,99 0,100 0,101 0,102 0,103 0,104 0,105 0,106 0,107 0,108 0,109 0,110 0,111 0,112 0,113 0,114 0,115 0,116 0,117 0,118 0,119 0,120 0,121 0,122 0,123 0,124 0,125 0,126 0,127 0,128 0,129 0,130 0,131 0,132 0,133 0,134 0,135 0,136 0,137 0,138 0,139 0,140 2.81666666666667,141 2.81666666666667,142 5.63333333333333,143 8.45,144 8.45,145 8.45,146 5.63333333333333,147 5.63333333333333,148 2.81666666666667,149 0,150 2.81666666666667,151 5.63333333333333,152 8.45,153 8.45,154 8.45,155 8.45,156 8.45,157 8.45,158 8.45,159 11.2666666666667,160 14.0833333333333,161 16.9,162 16.9,163 16.9,164 15.4916666666667,165 14.0833333333333,166 12.675,167 11.2666666666667,168 9.85833333333333,169 8.45"
	style="stroke:grey;stroke-width:0.25;fill:none"/>


<polyline
	points="1 9.85833333333333,2 11.2666666666667,3 12.675,4 14.0833333333333,5 15.4916666666667,6 16.9,7 16.9,8 16.9,9 16.9,10 16.9,11 16.9,12 16.9,13 16.9,14 16.9,15 16.9,16 16.9,17 16.9,18 16.9,19 16.9,20 16.9,21 16.9,22 16.9,23 16.9,24 16.9,25 16.9,26 16.9,27 16.9,28 16.9,29 16.9,30 16.9,31 16.9,32 16.9,33 16.9,34 16.9,35 16.9,36 16.9,37 16.9,38 16.9,39 16.9,40 16.9,41 16.9,42 16.9,43 16.9,44 16.9,45 16.9,46 16.9,47 16.9,48 16.9,49 16.9,50 16.9,51 16.9,52 16.9,53 16.9,54 16.9,55 16.9,56 16.9,57 16.9,58 16.9,59 16.9,60 14.0833333333333,61 11.2666666666667,62 8.45,63 5.63333333333333,64 2.81666666666667,65 0,66 0,67 2.81666666666667,68 5.63333333333333,69 5.63333333333333,70 5.63333333333333,71 5.63333333333333,72 5.63333333333333,73 2.81666666666667,74 0,75 0,76 0,77 0,78 0,79 0,80 0,81 0,82 0,83 0,84 0,85 0,86 0,87 0,88 0,89 0,90 0,91 0,92 0,93 0,94 0,95 0,96 0,97 0,98 0,99 0,100 0,101 0,102 0,103 0,104 0,105 0,106 0,107 0,108 0,109 0,110 0,111 0,112 0,113 0,114 0,115 0,116 0,117 0,118 0,119 0,120 0,121 0,122 0,123 0,124 0,125 0,126 0,127 0,128 0,129 0,130 0,131 0,132 0,133 0,134 0,135 2.81666666666667,136 2.81666666666667,137 2.81666666666667,138 2.81666666666667,139 2.81666666666667,140 2.81666666666667,141 0,142 0,143 0,144 0,145 0,146 0,147 0,148 0,149 0,150 0,151 2.81666666666667,152 2.81666666666667,153 2.81666666666667,154 2.81666666666667,155 2.81666666666667,156 5.63333333333333,157 5.63333333333333,158 8.45,159 11.2666666666667,160 14.0833333333333,161 16.9,162 16.9,163 16.9,164 15.4916666666667,165 14.0833333333333,166 12.675,167 11.2666666666667,168 9.85833333333333,169 8.45"
	style="stroke:grey;stroke-width:0.25;fill:none"/>


<polyline
	points="1 9.85833333333333,2 11.2666666666667,3 12.675,4 14.0833333333333,5 15.4916666666667,6 16.9,7 16.9,8 16.9,9 16.9,10 16.9,11 16.9,12 16.9,13 16.9,14 16.9,15 16.9,16 16.9,17 16.9,18 16.9,19 16.9,20 16.9,21 16.9,22 16.9,23 16.9,24 16.9,25 16.9,26 16.9,27 16.9,28 16.9,29 16.9,30 16.9,31 16.9,32 16.9,33 16.9,34 16.9,35 16.9,36 16.9,37 16.9,38 16.9,39 16.9,40 16.9,41 16.9,42 16.9,43 16.9,44 16.9,45 16.9,46 16.9,47 16.9,48 16.9,49 16.9,50 16.9,51 16.9,52 16.9,53 16.9,54 16.9,55 16.9,56 16.9,57 16.9,58 16.9,59 16.9,60 16.9,61 16.9,62 14.0833333333333,63 14.0833333333333,64 14.0833333333333,65 11.2666666666667,66 8.45,67 5.63333333333333,68 5.63333333333333,69 2.81666666666667,70 0,71 0,72 0,73 0,74 0,75 0,76 0,77 0,78 0,79 0,80 0,81 0,82 0,83 0,84 0,85 0,86 0,87 0,88 0,89 0,90 0,91 0,92 0,93 0,94 0,95 0,96 0,97 0,98 0,99 0,100 0,101 0,102 0,103 0,104 0,105 0,106 0,107 0,108 0,109 0,110 0,111 0,112 0,113 0,114 0,115 0,116 0,117 0,118 0,119 0,120 0,121 0,122 0,123 0,124 0,125 0,126 0,127 0,128 0,129 0,130 0,131 0,132 0,133 0,134 0,135 2.81666666666667,136 2.81666666666667,137 2.81666666666667,138 2.81666666666667,139 2.81666666666667,140 2.81666666666667,141 0,142 0,143 0,144 0,145 0,146 0,147 0,148 0,149 0,150 2.81666666666667,151 5.63333333333333,152 8.45,153 8.45,154 8.45,155 8.45,156 8.45,157 8.45,158 8.45,159 11.2666666666667,160 14.0833333333333,161 16.9,162 16.9,163 16.9,164 15.4916666666667,165 14.0833333333333,166 12.675,167 11.2666666666667,168 9.85833333333333,169 8.45"
	style="stroke:grey;stroke-width:0.25;fill:none"/>


<polyline
	points="1 9.85833333333333,2 11.2666666666667,3 12.675,4 14.0833333333333,5 15.4916666666667,6 16.9,7 16.9,8 16.9,9 16.9,10 16.9,11 16.9,12 16.9,13 16.9,14 16.9,15 16.9,16 16.9,17 16.9,18 16.9,19 16.9,20 16.9,21 16.9,22 16.9,23 16.9,24 16.9,25 16.9,26 16.9,27 16.9,28 16.9,29 16.9,30 16.9,31 16.9,32 16.9,33 16.9,34 16.9,35 16.9,36 16.9,37 16.9,38 16.9,39 16.9,40 16.9,41 16.9,42 16.9,43 16.9,44 16.9,45 16.9,46 16.9,47 16.9,48 16.9,49 16.9,50 16.9,51 16.9,52 16.9,53 16.9,54 16.9,55 16.9,56 16.9,57 16.9,58 16.9,59 16.9,60 16.9,61 16.9,62 14.0833333333333,63 14.0833333333333,64 14.0833333333333,65 14.0833333333333,66 11.2666666666667,67 11.2666666666667,68 14.0833333333333,69 11.2666666666667,70 8.45,71 5.63333333333333,72 5.63333333333333,73 2.81666666666667,74 0,75 0,76 0,77 0,78 0,79 0,80 0,81 0,82 0,83 0,84 0,85 0,86 0,87 0,88 0,89 0,90 0,91 0,92 0,93 0,94 0,95 0,96 0,97 0,98 0,99 0,100 0,101 0,102 0,103 0,104 0,105 0,106 0,107 0,108 0,109 0,110 0,111 0,112 0,113 0,114 0,115 0,116 0,117 0,118 0,119 0,120 0,121 0,122 0,123 0,124 0,125 0,126 0,127 0,128 0,129 0,130 0,131 0,132 0,133 0,134 0,135 0,136 0,137 0,138 0,139 0,140 0,141 0,142 2.81666666666667,143 5.63333333333333,144 5.63333333333333,145 5.63333333333333,146 5.63333333333333,147 5.63333333333333,148 2.81666666666667,149 0,150 2.81666666666667,151 5.63333333333333,152 8.45,153 8.45,154 8.45,155 8.45,156 8.45,157 8.45,158 8.45,159 11.2666666666667,160 14.0833333333333,161 16.9,162 16.9,163 16.9,164 15.4916666666667,165 14.0833333333333,166 12.675,167 11.2666666666667,168 9.85833333333333,169 8.45"
	style="stroke:grey;stroke-width:0.25;fill:none"/>


<polyline
	points="1 9.85833333333333,2 11.2666666666667,3 12.675,4 14.0833333333333,5 15.4916666666667,6 16.9,7 16.9,8 16.9,9 16.9,10 16.9,11 16.9,12 16.9,13 16.9,14 16.9,15 16.9,16 16.9,17 16.9,18 16.9,19 16.9,20 16.9,21 16.9,22 16.9,23 16.9,24 16.9,25 16.9,26 16.9,27 16.9,28 16.9,29 16.9,30 16.9,31 16.9,32 16.9,33 16.9,34 16.9,35 16.9,36 16.9,37 16.9,38 16.9,39 16.9,40 16.9,41 14.0833333333333,42 11.2666666666667,43 11.2666666666667,44 8.45,45 8.45,46 8.45,47 11.2666666666667,48 14.0833333333333,49 14.0833333333333,50 16.9,51 16.9,52 16.9,53 16.9,54 16.9,55 16.9,56 16.9,57 16.9,58 16.9,59 16.9,60 14.0833333333333,61 11.2666666666667,62 8.45,63 5.63333333333333,64 2.81666666666667,65 0,66 0,67 2.81666666666667,68 5.63333333333333,69 5.63333333333333,70 5.63333333333333,71 5.63333333333333,72 5.63333333333333,73 2.81666666666667,74 0,75 0,76 0,77 0,78 0,79 0,80 0,81 0,82 0,83 0,84 0,85 0,86 0,87 0,88 0,89 0,90 0,91 0,92 0,93 0,94 0,95 0,96 0,97 0,98 0,99 0,100 0,101 0,102 0,103 0,104 0,105 0,106 0,107 0,108 0,109 0,110 0,111 0,112 0,113 0,114 0,115 0,116 0,117 0,118 0,119 0,120 0,121 0,122 0,123 0,124 0,125 0,126 0,127 0,128 0,129 0,130 0,131 0,132 0,133 0,134 0,135 2.81666666666667,136 2.81666666666667,137 2.81666666666667,138 2.81666666666667,139 2.81666666666667,140 2.81666666666667,141 0,142 0,143 0,144 0,145 0,146 0,147 0,148 0,149 0,150 0,151 2.81666666666667,152 2.81666666666667,153 2.81666666666667,154 2.81666666666667,155 2.81666666666667,156 5.63333333333333,157 5.63333333333333,158 8.45,159 11.2666666666667,160 14.0833333333333,161 16.9,162 16.9,163 16.9,164 15.4916666666667,165 14.0833333333333,166 12.675,167 11.2666666666667,168 9.85833333333333,169 8.45"
	style="stroke:grey;stroke-width:0.25;fill:none"/>


<polyline
	points="1 9.85833333333333,2 11.2666666666667,3 12.675,4 14.0833333333333,5 15.4916666666667,6 16.9,7 16.9,8 16.9,9 16.9,10 16.9,11 16.9,12 16.9,13 16.9,14 16.9,15 16.9,16 16.9,17 16.9,18 16.9,19 16.9,20 16.9,21 16.9,22 16.9,23 16.9,24 16.9,25 16.9,26 16.9,27 16.9,28 16.9,29 16.9,30 16.9,31 16.9,32 16.9,33 16.9,34 16.9,35 16.9,36 16.9,37 16.9,38 16.9,39 16.9,40 16.9,41 16.9,42 16.9,43 16.9,44 16.9,45 16.9,46 16.9,47 16.9,48 16.9,49 16.9,50 16.9,51 16.9,52 16.9,53 16.9,54 16.9,55 16.9,56 16.9,57 16.9,58 16.9,59 16.9,60 16.9,61 16.9,62 16.9,63 16.9,64 14.0833333333333,65 11.2666666666667,66 8.45,67 5.63333333333333,68 2.81666666666667,69 0,70 0,71 0,72 0,73 0,74 0,75 0,76 0,77 0,78 0,79 0,80 0,81 0,82 0,83 0,84 0,85 0,86 0,87 0,88 0,89 0,90 0,91 0,92 0,93 0,94 0,95 0,96 0,97 0,98 0,99 0,100 0,101 0,102 0,103 0,104 0,105 0,106 0,107 0,108 0,109 0,110 0,111 0,112 0,113 0,114 0,115 0,116 0,117 0,118 0,119 0,120 0,121 0,122 0,123 0,124 0,125 0,126 0,127 0,128 0,129 0,130 0,131 0,132 0,133 0,134 0,135 0,136 0,137 0,138 0,139 0,140 2.81666666666667,141 2.81666666666667,142 5.63333333333333,143 8.45,144 8.45,145 8.45,146 5.63333333333333,147 5.63333333333333,148 2.81666666666667,149 0,150 2.81666666666667,151 5.63333333333333,152 8.45,153 8.45,154 8.45,155 8.45,156 8.45,157 8.45,158 8.45,159 11.2666666666667,160 14.0833333333333,161 16.9,162 16.9,163 16.9,164 15.4916666666667,165 14.0833333333333,166 12.675,167 11.2666666666667,168 9.85833333333333,169 8.45"
	style="stroke:grey;stroke-width:0.25;fill:none"/>


<polyline
	points="1 9.85833333333333,2 11.2666666666667,3 12.675,4 14.0833333333333,5 15.4916666666667,6 16.9,7 16.9,8 16.9,9 16.9,10 16.9,11 16.9,12 16.9,13 16.9,14 16.9,15 16.9,16 14.0833333333333,17 11.2666666666667,18 8.45,19 8.45,20 8.45,21 8.45,22 11.2666666666667,23 14.0833333333333,24 16.9,25 16.9,26 16.9,27 16.9,28 16.9,29 16.9,30 16.9,31 16.9,32 16.9,33 16.9,34 16.9,35 16.9,36 14.0833333333333,37 11.2666666666667,38 8.45,39 5.63333333333333,40 2.81666666666667,41 0,42 2.81666666666667,43 5.63333333333333,44 8.45,45 11.2666666666667,46 14.0833333333333,47 16.9,48 16.9,49 16.9,50 16.9,51 16.9,52 16.9,53 16.9,54 16.9,55 16.9,56 16.9,57 16.9,58 16.9,59 16.9,60 16.9,61 16.9,62 16.9,63 14.0833333333333,64 11.2666666666667,65 8.45,66 5.63333333333333,67 2.81666666666667,68 0,69 0,70 0,71 0,72 0,73 0,74 0,75 0,76 0,77 0,78 0,79 0,80 0,81 0,82 0,83 0,84 0,85 0,86 0,87 0,88 0,89 0,90 0,91 0,92 0,93 0,94 0,95 0,96 0,97 0,98 0,99 0,100 0,101 0,102 0,103 0,104 0,105 0,106 0,107 0,108 0,109 0,110 0,111 0,112 0,113 0,114 0,115 0,116 0,117 0,118 0,119 0,120 0,121 0,122 0,123 0,124 0,125 0,126 0,127 0,128 0,129 0,130 0,131 0,132 0,133 0,134 0,135 0,136 0,137 0,138 0,139 0,140 0,141 0,142 0,143 0,144 0,145 0,146 0,147 0,148 0,149 0,150 0,151 0,152 0,153 0,154 0,155 0,156 0,157 0,158 0,159 0,160 0,161 0,162 0,163 0,164 1.40833333333333,165 2.81666666666667,166 4.225,167 5.63333333333333,168 7.04166666666667,169 8.45"
	style="stroke:grey;stroke-width:0.25;fill:none"/>


<polyline
	points="1 9.85833333333333,2 11.2666666666667,3 12.675,4 14.0833333333333,5 15.4916666666667,6 16.9,7 16.9,8 16.9,9 16.9,10 16.9,11 16.9,12 16.9,13 16.9,14 16.9,15 16.9,16 16.9,17 16.9,18 16.9,19 16.9,20 16.9,21 16.9,22 14.0833333333333,23 11.2666666666667,24 8.45,25 5.63333333333333,26 2.81666666666667,27 2.81666666666667,28 5.63333333333333,29 8.45,30 11.2666666666667,31 14.0833333333333,32 16.9,33 16.9,34 16.9,35 16.9,36 16.9,37 16.9,38 16.9,39 16.9,40 16.9,41 16.9,42 16.9,43 16.9,44 16.9,45 16.9,46 16.9,47 16.9,48 16.9,49 16.9,50 16.9,51 16.9,52 16.9,53 16.9,54 16.9,55 16.9,56 16.9,57 16.9,58 16.9,59 16.9,60 16.9,61 16.9,62 14.0833333333333,63 11.2666666666667,64 8.45,65 5.63333333333333,66 2.81666666666667,67 0,68 0,69 0,70 0,71 0,72 0,73 0,74 0,75 0,76 0,77 0,78 0,79 0,80 0,81 0,82 0,83 0,84 0,85 0,86 0,87 0,88 0,89 0,90 0,91 0,92 0,93 0,94 0,95 0,96 0,97 0,98 0,99 0,100 0,101 0,102 0,103 0,104 0,105 0,106 0,107 0,108 0,109 0,110 0,111 0,112 0,113 0,114 0,115 0,116 0,117 0,118 0,119 0,120 0,121 0,122 0,123 0,124 0,125 0,126 0,127 0,128 0,129 0,130 0,131 0,132 0,133 0,134 0,135 0,136 0,137 0,138 0,139 0,140 0,141 0,142 0,143 0,144 0,145 0,146 0,147 0,148 0,149 0,150 0,151 0,152 0,153 0,154 0,155 0,156 0,157 0,158 0,159 0,160 0,161 0,162 0,163 0,164 1.40833333333333,165 2.81666666666667,166 4.225,167 5.63333333333333,168 7.04166666666667,169 8.45"
	style="stroke:grey;stroke-width:0.25;fill:none"/>


<polyline
	points="1 9.85833333333333,2 11.2666666666667,3 12.675,4 14.0833333333333,5 15.4916666666667,6 16.9,7 16.9,8 16.9,9 16.9,10 16.9,11 16.9,12 16.9,13 16.9,14 16.9,15 16.9,16 16.9,17 16.9,18 16.9,19 16.9,20 16.9,21 16.9,22 14.0833333333333,23 11.2666666666667,24 8.45,25 5.63333333333333,26 2.81666666666667,27 0,28 0,29 2.81666666666667,30 5.63333333333333,31 8.45,32 11.2666666666667,33 14.0833333333333,34 16.9,35 16.9,36 16.9,37 16.9,38 16.9,39 16.9,40 16.9,41 16.9,42 16.9,43 16.9,44 14.0833333333333,45 11.2666666666667,46 8.45,47 5.63333333333333,48 2.81666666666667,49 2.81666666666667,50 5.63333333333333,51 8.45,52 11.2666666666667,53 14.0833333333333,54 16.9,55 14.0833333333333,56 11.2666666666667,57 8.45,58 5.63333333333333,59 2.81666666666667,60 0,61 0,62 0,63 0,64 0,65 0,66 0,67 0,68 0,69 0,70 0,71 0,72 0,73 0,74 0,75 0,76 0,77 0,78 0,79 0,80 0,81 0,82 0,83 0,84 0,85 0,86 0,87 0,88 0,89 0,90 0,91 0,92 0,93 0,94 0,95 0,96 0,97 0,98 0,99 0,100 0,101 0,102 0,103 0,104 0,105 0,106 0,107 0,108 0,109 0,110 0,111 0,112 0,113 0,114 0,115 0,116 0,117 0,118 0,119 0,120 0,121 0,122 0,123 0,124 0,125 0,126 0,127 0,128 0,129 0,130 0,131 0,132 0,133 0,134 0,135 0,136 0,137 0,138 0,139 0,140 0,141 0,142 0,143 0,144 0,145 0,146 0,147 0,148 0,149 0,150 0,151 0,152 0,153 0,154 0,155 0,156 0,157 0,158 0,159 0,160 0,161 0,162 0,163 0,164 1.40833333333333,165 2.81666666666667,166 4.225,167 5.63333333333333,168 7.04166666666667,169 8.45"
	style="stroke:grey;stroke-width:0.25;fill:none"/>


<polyline
	points="1 9.85833333333333,2 11.2666666666667,3 12.675,4 14.0833333333333,5 15.4916666666667,6 16.9,7 16.9,8 16.9,9 16.9,10 16.9,11 16.9,12 16.9,13 16.9,14 16.9,15 16.9,16 14.0833333333333,17 11.2666666666667,18 8.45,19 8.45,20 8.45,21 8.45,22 11.2666666666667,23 14.0833333333333,24 16.9,25 16.9,26 16.9,27 16.9,28 16.9,29 16.9,30 16.9,31 16.9,32 16.9,33 16.9,34 16.9,35 16.9,36 14.0833333333333,37 11.2666666666667,38 8.45,39 5.63333333333333,40 2.81666666666667,41 0,42 2.81666666666667,43 5.63333333333333,44 8.45,45 11.2666666666667,46 11.2666666666667,47 11.2666666666667,48 11.2666666666667,49 11.2666666666667,50 11.2666666666667,51 11.2666666666667,52 14.0833333333333,53 16.9,54 16.9,55 16.9,56 16.9,57 16.9,58 16.9,59 16.9,60 16.9,61 16.9,62 16.9,63 14.0833333333333,64 11.2666666666667,65 8.45,66 5.63333333333333,67 2.81666666666667,68 0,69 0,70 0,71 0,72 0,73 0,74 0,75 0,76 0,77 0,78 0,79 0,80 0,81 0,82 0,83 0,84 0,85 0,86 0,87 0,88 0,89 0,90 0,91 0,92 0,93 0,94 0,95 0,96 0,97 0,98 0,99 0,100 0,101 0,102 0,103 0,104 0,105 0,106 0,107 0,108 0,109 0,110 0,111 0,112 0,113 0,114 0,115 0,116 0,117 0,118 0,119 0,120 0,121 0,122 0,123 0,124 0,125 0,126 0,127 0,128 0,129 0,130 0,131 0,132 0,133 0,134 0,135 0,136 0,137 0,138 0,139 0,140 0,141 0,142 0,143 0,144 0,145 0,146 0,147 0,148 0,149 0,150 0,151 0,152 0,153 0,154 0,155 0,156 0,157 0,158 0,159 0,160 0,161 0,162 0,163 0,164 1.40833333333333,165 2.81666666666667,166 4.225,167 5.63333333333333,168 7.04166666666667,169 8.45"
	style="stroke:grey;stroke-width:0.25;fill:none"/>


<polyline
	points="1 9.85833333333333,2 11.2666666666667,3 12.675,4 14.0833333333333,5 15.4916666666667,6 16.9,7 16.9,8 16.9,9 16.9,10 16.9,11 16.9,12 16.9,13 16.9,14 16.9,15 16.9,16 16.9,17 16.9,18 16.9,19 16.9,20 16.9,21 16.9,22 14.0833333333333,23 11.2666666666667,24 8.45,25 5.63333333333333,26 2.81666666666667,27 0,28 0,29 0,30 0,31 0,32 0,33 0,34 0,35 0,36 0,37 0,38 0,39 0,40 0,41 0,42 0,43 0,44 0,45 0,46 0,47 0,48 0,49 0,50 0,51 0,52 0,53 0,54 0,55 0,56 0,57 0,58 0,59 0,60 0,61 0,62 0,63 0,64 0,65 0,66 0,67 0,68 0,69 0,70 0,71 0,72 0,73 0,74 0,75 0,76 0,77 0,78 0,79 0,80 0,81 0,82 0,83 0,84 0,85 0,86 0,87 0,88 0,89 0,90 0,91 0,92 0,93 0,94 0,95 0,96 0,97 0,98 0,99 0,100 0,101 0,102 0,103 0,104 0,105 0,106 0,107 0,108 0,109 0,110 0,111 0,112 0,113 0,114 0,115 0,116 0,117 0,118 0,119 0,120 0,121 0,122 0,123 0,124 0,125 0,126 0,127 0,128 0,129 0,130 0,131 0,132 0,133 0,134 0,135 0,136 0,137 0,138 0,139 0,140 0,141 0,142 0,143 0,144 0,145 0,146 0,147 0,148 0,149 0,150 0,151 0,152 0,153 0,154 0,155 0,156 0,157 0,158 0,159 0,160 0,161 0,162 0,163 0,164 1.40833333333333,165 2.81666666666667,166 4.225,167 5.63333333333333,168 7.04166666666667,169 8.45"
	style="stroke:grey;stroke-width:0.25;fill:none"/>


<polyline
	points="1 9.85833333333333,2 11.2666666666667,3 12.675,4 14.0833333333333,5 15.4916666666667,6 16.9,7 16.9,8 16.9,9 16.9,10 16.9,11 16.9,12 16.9,13 16.9,14 16.9,15 16.9,16 16.9,17 16.9,18 16.9,19 16.9,20 16.9,21 16.9,22 16.9,23 16.9,24 16.9,25 16.9,26 16.9,27 16.9,28 16.9,29 16.9,30 16.9,31 16.9,32 16.9,33 16.9,34 16.9,35 16.9,36 16.9,37 16.9,38 16.9,39 16.9,40 16.9,41 16.9,42 16.9,43 16.9,44 16.9,45 16.9,46 16.9,47 16.9,48 16.9,49 16.9,50 16.9,51 16.9,52 16.9,53 16.9,54 16.9,55 16.9,56 16.9,57 16.9,58 14.0833333333333,59 14.0833333333333,60 14.0833333333333,61 14.0833333333333,62 11.2666666666667,63 8.45,64 8.45,65 5.63333333333333,66 2.81666666666667,67 0,68 0,69 0,70 0,71 0,72 0,73 0,74 0,75 0,76 0,77 0,78 0,79 0,80 0,81 0,82 0,83 0,84 0,85 0,86 0,87 0,88 0,89 0,90 0,91 0,92 0,93 0,94 0,95 0,96 0,97 0,98 0,99 0,100 0,101 0,102 0,103 0,104 0,105 0,106 0,107 0,108 0,109 0,110 0,111 0,112 0,113 0,114 0,115 0,116 0,117 0,118 0,119 0,120 0,121 0,122 0,123 0,124 0,125 0,126 0,127 0,128 0,129 0,130 0,131 0,132 0,133 0,134 0,135 0,136 0,137 0,138 0,139 0,140 0,141 0,142 0,143 0,144 0,145 0,146 0,147 0,148 0,149 0,150 0,151 0,152 0,153 0,154 0,155 0,156 0,157 0,158 0,159 0,160 0,161 0,162 0,163 0,164 1.40833333333333,165 2.81666666666667,166 4.225,167 5.63333333333333,168 7.04166666666667,169 8.45"
	style="stroke:grey;stroke-width:0.25;fill:none"/>


<polyline
	points="1 9.85833333333333,2 11.2666666666667,3 12.675,4 14.0833333333333,5 15.4916666666667,6 16.9,7 16.9,8 16.9,9 16.9,10 16.9,11 16.9,12 16.9,13 16.9,14 16.9,15 16.9,16 16.9,17 16.9,18 16.9,19 16.9,20 16.9,21 16.9,22 16.9,23 16.9,24 16.9,25 16.9,26 16.9,27 16.9,28 16.9,29 16.9,30 16.9,31 16.9,32 16.9,33 16.9,34 16.9,35 16.9,36 16.9,37 16.9,38 16.9,39 16.9,40 16.9,41 16.9,42 16.9,43 16.9,44 16.9,45 16.9,46 16.9,47 16.9,48 16.9,49 16.9,50 16.9,51 16.9,52 16.9,53 16.9,54 16.9,55 16.9,56 16.9,57 16.9,58 16.9,59 16.9,60 16.9,61 14.0833333333333,62 11.2666666666667,63 8.45,64 5.63333333333333,65 2.81666666666667,66 0,67 0,68 0,69 0,70 0,71 0,72 0,73 0,74 0,75 0,76 0,77 0,78 0,79 0,80 0,81 0,82 0,83 0,84 0,85 0,86 0,87 0,88 0,89 0,90 0,91 0,92 0,93 0,94 0,95 0,96 0,97 0,98 0,99 0,100 0,101 0,102 0,103 0,104 0,105 0,106 0,107 0,108 0,109 0,110 0,111 0,112 0,113 0,114 0,115 0,116 0,117 0,118 0,119 0,120 0,121 0,122 0,123 0,124 0,125 0,126 0,127 0,128 0,129 0,130 0,131 0,132 0,133 0,134 0,135 0,136 0,137 0,138 0,139 0,140 0,141 0,142 0,143 0,144 0,145 0,146 0,147 0,148 0,149 0,150 0,151 0,152 0,153 0,154 0,155 0,156 0,157 0,158 0,159 0,160 0,161 0,162 0,163 0,164 1.40833333333333,165 2.81666666666667,166 4.225,167 5.63333333333333,168 7.04166666666667,169 8.45"
	style="stroke:grey;stroke-width:0.25;fill:none"/>


<polyline
	points="1 9.85833333333333,2 11.2666666666667,3 12.675,4 14.0833333333333,5 15.4916666666667,6 16.9,7 16.9,8 16.9,9 16.9,10 16.9,11 16.9,12 14.0833333333333,13 11.2666666666667,14 8.45,15 5.63333333333333,16 2.81666666666667,17 0,18 0,19 0,20 0,21 0,22 0,23 0,24 2.81666666666667,25 5.63333333333333,26 5.63333333333333,27 5.63333333333333,28 5.63333333333333,29 5.63333333333333,30 2.81666666666667,31 0,32 0,33 0,34 0,35 0,36 0,37 0,38 0,39 0,40 0,41 0,42 0,43 0,44 0,45 0,46 0,47 0,48 0,49 0,50 0,51 0,52 0,53 0,54 0,55 0,56 0,57 0,58 0,59 0,60 0,61 0,62 0,63 0,64 0,65 0,66 0,67 0,68 0,69 0,70 0,71 0,72 0,73 0,74 0,75 0,76 0,77 0,78 0,79 0,80 0,81 0,82 0,83 0,84 0,85 0,86 0,87 0,88 0,89 0,90 0,91 0,92 0,93 0,94 0,95 0,96 0,97 0,98 0,99 0,100 0,101 0,102 0,103 0,104 0,105 0,106 0,107 0,108 0,109 0,110 0,111 0,112 0,113 0,114 0,115 0,116 0,117 0,118 0,119 0,120 0,121 0,122 0,123 0,124 0,125 0,126 0,127 0,128 0,129 0,130 0,131 0,132 0,133 0,134 0,135 0,136 0,137 0,138 0,139 0,140 0,141 0,142 0,143 0,144 0,145 0,146 0,147 0,148 0,149 0,150 0,151 0,152 0,153 0,154 0,155 0,156 0,157 0,158 0,159 0,160 0,161 0,162 0,163 0,164 1.40833333333333,165 2.81666666666667,166 4.225,167 5.63333333333333,168 7.04166666666667,169 8.45"
	style="stroke:grey;stroke-width:0.25;fill:none"/>


<polyline
	points="1 9.85833333333333,2 11.2666666666667,3 12.675,4 14.0833333333333,5 15.4916666666667,6 16.9,7 16.9,8 16.9,9 16.9,10 16.9,11 16.9,12 16.9,13 16.9,14 16.9,15 16.9,16 16.9,17 16.9,18 16.9,19 16.9,20 16.9,21 16.9,22 16.9,23 16.9,24 16.9,25 16.9,26 16.9,27 16.9,28 16.9,29 16.9,30 16.9,31 14.0833333333333,32 11.2666666666667,33 11.2666666666667,34 8.45,35 5.63333333333333,36 2.81666666666667,37 2.81666666666667,38 2.81666666666667,39 0,40 0,41 0,42 2.81666666666667,43 5.63333333333333,44 8.45,45 11.2666666666667,46 14.0833333333333,47 16.9,48 16.9,49 16.9,50 16.9,51 16.9,52 16.9,53 16.9,54 16.9,55 16.9,56 16.9,57 16.9,58 16.9,59 16.9,60 16.9,61 16.9,62 16.9,63 14.0833333333333,64 11.2666666666667,65 8.45,66 5.63333333333333,67 2.81666666666667,68 0,69 0,70 0,71 0,72 0,73 0,74 0,75 0,76 0,77 0,78 0,79 0,80 0,81 0,82 0,83 0,84 0,85 0,86 0,87 0,88 0,89 0,90 0,91 0,92 0,93 0,94 0,95 0,96 0,97 0,98 0,99 0,100 0,101 0,102 0,103 0,104 0,105 0,106 0,107 0,108 0,109 0,110 0,111 0,112 0,113 0,114 0,115 0,116 0,117 0,118 0,119 0,120 0,121 0,122 0,123 0,124 0,125 0,126 0,127 0,128 0,129 0,130 0,131 0,132 0,133 0,134 0,135 0,136 0,137 0,138 0,139 0,140 0,141 0,142 0,143 0,144 0,145 0,146 0,147 0,148 0,149 0,150 0,151 0,152 0,153 0,154 0,155 0,156 0,157 0,158 0,159 0,160 0,161 0,162 0,163 0,164 1.40833333333333,165 2.81666666666667,166 4.225,167 5.63333333333333,168 7.04166666666667,169 8.45"
	style="stroke:grey;stroke-width:0.25;fill:none"/>


<polyline
	points="1 9.85833333333333,2 11.2666666666667,3 12.675,4 14.0833333333333,5 15.4916666666667,6 16.9,7 16.9,8 16.9,9 16.9,10 16.9,11 16.9,12 16.9,13 16.9,14 16.9,15 16.9,16 16.9,17 16.9,18 16.9,19 14.0833333333333,20 11.2666666666667,21 8.45,22 5.63333333333333,23 2.81666666666667,24 0,25 0,26 2.81666666666667,27 5.63333333333333,28 8.45,29 11.2666666666667,30 14.0833333333333,31 16.9,32 16.9,33 16.9,34 16.9,35 16.9,36 16.9,37 16.9,38 16.9,39 16.9,40 16.9,41 16.9,42 16.9,43 16.9,44 16.9,45 16.9,46 16.9,47 16.9,48 16.9,49 16.9,50 16.9,51 14.0833333333333,52 14.0833333333333,53 14.0833333333333,54 14.0833333333333,55 14.0833333333333,56 14.0833333333333,57 16.9,58 16.9,59 16.9,60 16.9,61 16.9,62 16.9,63 14.0833333333333,64 11.2666666666667,65 8.45,66 5.63333333333333,67 2.81666666666667,68 0,69 0,70 0,71 0,72 0,73 0,74 0,75 0,76 0,77 0,78 0,79 0,80 0,81 0,82 0,83 0,84 0,85 0,86 0,87 0,88 0,89 0,90 0,91 0,92 0,93 0,94 0,95 0,96 0,97 0,98 0,99 0,100 0,101 0,102 0,103 0,104 0,105 0,106 0,107 0,108 0,109 0,110 0,111 0,112 0,113 0,114 0,115 0,116 0,117 0,118 0,119 0,120 0,121 0,122 0,123 0,124 0,125 0,126 0,127 0,128 0,129 0,130 0,131 0,132 0,133 0,134 0,135 0,136 0,137 0,138 0,139 0,140 0,141 0,142 0,143 0,144 0,145 0,146 0,147 0,148 0,149 0,150 0,151 0,152 0,153 0,154 0,155 0,156 0,157 0,158 0,159 0,160 0,161 0,162 0,163 0,164 1.40833333333333,165 2.81666666666667,166 4.225,167 5.63333333333333,168 7.04166666666667,169 8.45"
	style="stroke:grey;stroke-width:0.25;fill:none"/>


<polyline
	points="1 9.85833333333333,2 11.2666666666667,3 12.675,4 14.0833333333333,5 15.4916666666667,6 16.9,7 16.9,8 16.9,9 16.9,10 16.9,11 16.9,12 16.9,13 16.9,14 16.9,15 16.9,16 16.9,17 16.9,18 16.9,19 16.9,20 16.9,21 16.9,22 16.9,23 16.9,24 16.9,25 16.9,26 16.9,27 16.9,28 16.9,29 16.9,30 16.9,31 16.9,32 16.9,33 16.9,34 16.9,35 16.9,36 16.9,37 16.9,38 16.9,39 16.9,40 16.9,41 16.9,42 16.9,43 16.9,44 16.9,45 16.9,46 16.9,47 16.9,48 16.9,49 16.9,50 16.9,51 16.9,52 16.9,53 16.9,54 16.9,55 14.0833333333333,56 11.2666666666667,57 8.45,58 5.63333333333333,59 2.81666666666667,60 2.81666666666667,61 5.63333333333333,62 5.63333333333333,63 5.63333333333333,64 5.63333333333333,65 5.63333333333333,66 2.81666666666667,67 0,68 0,69 0,70 0,71 0,72 0,73 0,74 0,75 0,76 0,77 0,78 0,79 0,80 0,81 0,82 0,83 0,84 0,85 0,86 0,87 0,88 0,89 0,90 0,91 0,92 0,93 0,94 0,95 0,96 0,97 0,98 0,99 0,100 0,101 0,102 0,103 0,104 0,105 0,106 0,107 0,108 0,109 0,110 0,111 0,112 0,113 0,114 0,115 0,116 0,117 0,118 0,119 0,120 0,121 0,122 0,123 0,124 0,125 0,126 0,127 0,128 0,129 0,130 0,131 0,132 0,133 0,134 0,135 0,136 0,137 0,138 0,139 0,140 0,141 0,142 0,143 0,144 0,145 0,146 0,147 0,148 0,149 0,150 0,151 0,152 0,153 0,154 0,155 0,156 0,157 0,158 0,159 0,160 0,161 0,162 0,163 0,164 1.40833333333333,165 2.81666666666667,166 4.225,167 5.63333333333333,168 7.04166666666667,169 8.45"
	style="stroke:grey;stroke-width:0.25;fill:none"/>


<polyline
	points="1 9.85833333333333,2 11.2666666666667,3 12.675,4 14.0833333333333,5 15.4916666666667,6 16.9,7 16.9,8 16.9,9 16.9,10 16.9,11 16.9,12 16.9,13 16.9,14 16.9,15 16.9,16 16.9,17 16.9,18 16.9,19 14.0833333333333,20 11.2666666666667,21 8.45,22 5.63333333333333,23 2.81666666666667,24 0,25 0,26 0,27 2.81666666666667,28 5.63333333333333,29 8.45,30 11.2666666666667,31 14.0833333333333,32 16.9,33 16.9,34 16.9,35 16.9,36 16.9,37 16.9,38 16.9,39 16.9,40 16.9,41 16.9,42 16.9,43 16.9,44 16.9,45 16.9,46 16.9,47 16.9,48 16.9,49 16.9,50 16.9,51 16.9,52 16.9,53 16.9,54 16.9,55 16.9,56 16.9,57 16.9,58 16.9,59 16.9,60 16.9,61 16.9,62 14.0833333333333,63 11.2666666666667,64 8.45,65 5.63333333333333,66 2.81666666666667,67 0,68 0,69 0,70 0,71 0,72 0,73 0,74 0,75 0,76 0,77 0,78 0,79 0,80 0,81 0,82 0,83 0,84 0,85 0,86 0,87 0,88 0,89 0,90 0,91 0,92 0,93 0,94 0,95 0,96 0,97 0,98 0,99 0,100 0,101 0,102 0,103 0,104 0,105 0,106 0,107 0,108 0,109 0,110 0,111 0,112 0,113 0,114 0,115 0,116 0,117 0,118 0,119 0,120 0,121 0,122 0,123 0,124 0,125 0,126 0,127 0,128 0,129 0,130 0,131 0,132 0,133 0,134 0,135 0,136 0,137 0,138 0,139 0,140 0,141 0,142 0,143 0,144 0,145 0,146 0,147 0,148 0,149 0,150 0,151 0,152 0,153 0,154 0,155 0,156 0,157 0,158 0,159 0,160 0,161 0,162 0,163 0,164 1.40833333333333,165 2.81666666666667,166 4.225,167 5.63333333333333,168 7.04166666666667,169 8.45"
	style="stroke:grey;stroke-width:0.25;fill:none"/>


<polyline
	points="1 9.85833333333333,2 11.2666666666667,3 12.675,4 14.0833333333333,5 15.4916666666667,6 16.9,7 16.9,8 16.9,9 16.9,10 16.9,11 16.9,12 16.9,13 16.9,14 16.9,15 16.9,16 16.9,17 16.9,18 16.9,19 16.9,20 16.9,21 16.9,22 16.9,23 16.9,24 16.9,25 16.9,26 16.9,27 16.9,28 16.9,29 16.9,30 16.9,31 16.9,32 16.9,33 16.9,34 16.9,35 16.9,36 16.9,37 16.9,38 16.9,39 16.9,40 16.9,41 16.9,42 16.9,43 14.0833333333333,44 11.2666666666667,45 8.45,46 5.63333333333333,47 5.63333333333333,48 2.81666666666667,49 5.63333333333333,50 8.45,51 11.2666666666667,52 14.0833333333333,53 14.0833333333333,54 16.9,55 16.9,56 16.9,57 16.9,58 16.9,59 16.9,60 16.9,61 14.0833333333333,62 11.2666666666667,63 8.45,64 5.63333333333333,65 2.81666666666667,66 0,67 0,68 0,69 0,70 0,71 0,72 0,73 0,74 0,75 0,76 0,77 0,78 0,79 0,80 0,81 0,82 0,83 0,84 0,85 0,86 0,87 0,88 0,89 0,90 0,91 0,92 0,93 0,94 0,95 0,96 0,97 0,98 0,99 0,100 0,101 0,102 0,103 0,104 0,105 0,106 0,107 0,108 0,109 0,110 0,111 0,112 0,113 0,114 0,115 0,116 0,117 0,118 0,119 0,120 0,121 0,122 0,123 0,124 0,125 0,126 0,127 0,128 0,129 0,130 0,131 0,132 0,133 0,134 0,135 0,136 0,137 0,138 0,139 0,140 0,141 0,142 0,143 0,144 0,145 0,146 0,147 0,148 0,149 0,150 0,151 0,152 0,153 0,154 0,155 0,156 0,157 0,158 0,159 0,160 0,161 0,162 0,163 0,164 1.40833333333333,165 2.81666666666667,166 4.225,167 5.63333333333333,168 7.04166666666667,169 8.45"
	style="stroke:grey;stroke-width:0.25;fill:none"/>


<polyline
	points="1 9.85833333333333,2 11.2666666666667,3 12.675,4 14.0833333333333,5 15.4916666666667,6 16.9,7 16.9,8 16.9,9 16.9,10 16.9,11 16.9,12 16.9,13 16.9,14 16.9,15 16.9,16 16.9,17 16.9,18 16.9,19 14.0833333333333,20 11.2666666666667,21 8.45,22 5.63333333333333,23 2.81666666666667,24 0,25 0,26 0,27 0,28 0,29 2.81666666666667,30 5.63333333333333,31 8.45,32 11.2666666666667,33 14.0833333333333,34 16.9,35 16.9,36 16.9,37 16.9,38 16.9,39 16.9,40 16.9,41 16.9,42 16.9,43 16.9,44 14.0833333333333,45 11.2666666666667,46 8.45,47 5.63333333333333,48 5.63333333333333,49 5.63333333333333,50 8.45,51 11.2666666666667,52 14.0833333333333,53 16.9,54 16.9,55 14.0833333333333,56 11.2666666666667,57 8.45,58 5.63333333333333,59 2.81666666666667,60 0,61 0,62 0,63 0,64 0,65 0,66 0,67 0,68 0,69 0,70 0,71 0,72 0,73 0,74 0,75 0,76 0,77 0,78 0,79 0,80 0,81 0,82 0,83 0,84 0,85 0,86 0,87 0,88 0,89 0,90 0,91 0,92 0,93 0,94 0,95 0,96 0,97 0,98 0,99 0,100 0,101 0,102 0,103 0,104 0,105 0,106 0,107 0,108 0,109 0,110 0,111 0,112 0,113 0,114 0,115 0,116 0,117 0,118 0,119 0,120 0,121 0,122 0,123 0,124 0,125 0,126 0,127 0,128 0,129 0,130 0,131 0,132 0,133 0,134 0,135 0,136 0,137 0,138 0,139 0,140 0,141 0,142 0,143 0,144 0,145 0,146 0,147 0,148 0,149 0,150 0,151 0,152 0,153 0,154 0,155 0,156 0,157 0,158 0,159 0,160 0,161 0,162 0,163 0,164 1.40833333333333,165 2.81666666666667,166 4.225,167 5.63333333333333,168 7.04166666666667,169 8.45"
	style="stroke:grey;stroke-width:0.25;fill:none"/>


<polyline
	points="1 9.85833333333333,2 11.2666666666667,3 12.675,4 14.0833333333333,5 15.4916666666667,6 16.9,7 16.9,8 16.9,9 16.9,10 16.9,11 16.9,12 16.9,13 16.9,14 16.9,15 16.9,16 16.9,17 16.9,18 16.9,19 16.9,20 16.9,21 16.9,22 16.9,23 16.9,24 16.9,25 16.9,26 16.9,27 16.9,28 16.9,29 16.9,30 16.9,31 14.0833333333333,32 11.2666666666667,33 11.2666666666667,34 8.45,35 5.63333333333333,36 2.81666666666667,37 2.81666666666667,38 2.81666666666667,39 0,40 0,41 0,42 2.81666666666667,43 5.63333333333333,44 8.45,45 11.2666666666667,46 11.2666666666667,47 11.2666666666667,48 11.2666666666667,49 11.2666666666667,50 11.2666666666667,51 11.2666666666667,52 14.0833333333333,53 16.9,54 16.9,55 16.9,56 16.9,57 16.9,58 16.9,59 16.9,60 16.9,61 16.9,62 16.9,63 14.0833333333333,64 11.2666666666667,65 8.45,66 5.63333333333333,67 2.81666666666667,68 0,69 0,70 0,71 0,72 0,73 0,74 0,75 0,76 0,77 0,78 0,79 0,80 0,81 0,82 0,83 0,84 0,85 0,86 0,87 0,88 0,89 0,90 0,91 0,92 0,93 0,94 0,95 0,96 0,97 0,98 0,99 0,100 0,101 0,102 0,103 0,104 0,105 0,106 0,107 0,108 0,109 0,110 0,111 0,112 0,113 0,114 0,115 0,116 0,117 0,118 0,119 0,120 0,121 0,122 0,123 0,124 0,125 0,126 0,127 0,128 0,129 0,130 0,131 0,132 0,133 0,134 0,135 0,136 0,137 0,138 0,139 0,140 0,141 0,142 0,143 0,144 0,145 0,146 0,147 0,148 0,149 0,150 0,151 0,152 0,153 0,154 0,155 0,156 0,157 0,158 0,159 0,160 0,161 0,162 0,163 0,164 1.40833333333333,165 2.81666666666667,166 4.225,167 5.63333333333333,168 7.04166666666667,169 8.45"
	style="stroke:grey;stroke-width:0.25;fill:none"/>


<polyline
	points="1 9.85833333333333,2 11.2666666666667,3 12.675,4 14.0833333333333,5 15.4916666666667,6 16.9,7 16.9,8 16.9,9 16.9,10 16.9,11 16.9,12 16.9,13 16.9,14 16.9,15 16.9,16 16.9,17 16.9,18 16.9,19 16.9,20 16.9,21 16.9,22 16.9,23 16.9,24 16.9,25 16.9,26 16.9,27 16.9,28 16.9,29 16.9,30 16.9,31 16.9,32 16.9,33 16.9,34 16.9,35 16.9,36 16.9,37 16.9,38 16.9,39 16.9,40 16.9,41 16.9,42 16.9,43 16.9,44 16.9,45 16.9,46 16.9,47 16.9,48 16.9,49 16.9,50 16.9,51 16.9,52 16.9,53 16.9,54 16.9,55 16.9,56 16.9,57 16.9,58 16.9,59 16.9,60 16.9,61 16.9,62 14.0833333333333,63 11.2666666666667,64 8.45,65 5.63333333333334,66 2.81666666666666,67 2.81666666666666,68 0,69 0,70 0,71 0,72 0,73 0,74 0,75 0,76 0,77 0,78 0,79 0,80 0,81 0,82 0,83 0,84 0,85 0,86 0,87 0,88 0,89 0,90 0,91 0,92 0,93 0,94 0,95 0,96 0,97 0,98 0,99 0,100 0,101 0,102 0,103 0,104 0,105 0,106 0,107 0,108 0,109 0,110 0,111 0,112 0,113 0,114 0,115 0,116 0,117 0,118 0,119 0,120 0,121 0,122 0,123 0,124 0,125 0,126 0,127 0,128 0,129 0,130 0,131 0,132 0,133 0,134 0,135 0,136 0,137 0,138 0,139 0,140 0,141 0,142 0,143 0,144 0,145 0,146 0,147 0,148 0,149 0,150 0,151 0,152 0,153 0,154 0,155 0,156 0,157 0,158 0,159 0,160 0,161 0,162 0,163 0,164 1.40833333333334,165 2.81666666666666,166 4.225,167 5.63333333333334,168 7.04166666666666,169 8.45"
	style="stroke:black;stroke-width:2;fill:none"/>


<polygon
     points="0 8.45,1 8.45,2 8.45,3 8.45,4 8.45,5 8.45,6 8.45,7 8.45,8 8.45,9 8.45,10 8.45,11 8.45,12 8.45,13 8.45,14 8.45,15 8.45,16 8.45,17 8.45,18 8.45,19 8.45,20 8.45,21 8.45,22 8.45,23 8.45,24 8.45,25 8.45,26 8.45,27 8.45,28 8.45,29 8.45,30 8.45,31 8.45,32 8.45,33 8.45,34 8.45,35 8.45,36 8.45,37 8.45,38 8.45,39 8.45,40 8.45,41 8.45,42 8.45,43 8.45,44 8.45,45 8.45,46 8.45,47 8.45,48 8.45,49 8.45,50 8.45,51 8.45,52 8.45,53 8.45,54 8.45,55 8.45,56 8.45,57 8.45,58 8.45,59 8.45,60 8.45,61 8.45,62 8.45,63 8.45,64 8.45,65 5.63333333333334,66 2.81666666666666,67 2.81666666666666,68 0,69 0,70 0,71 0,72 0,73 0,74 0,75 0,76 0,77 0,78 0,79 0,80 0,81 0,82 0,83 0,84 0,85 0,86 0,87 0,88 0,89 0,90 0,91 0,92 0,93 0,94 0,95 0,96 0,97 0,98 0,99 0,100 0,101 0,102 0,103 0,104 0,105 0,106 0,107 0,108 0,109 0,110 0,111 0,112 0,113 0,114 0,115 0,116 0,117 0,118 0,119 0,120 0,121 0,122 0,123 0,124 0,125 0,126 0,127 0,128 0,129 0,130 0,131 0,132 0,133 0,134 0,135 0,136 0,137 0,138 0,139 0,140 0,141 0,142 0,143 0,144 0,145 0,146 0,147 0,148 0,149 0,150 0,151 0,152 0,153 0,154 0,155 0,156 0,157 0,158 0,159 0,160 0,161 0,162 0,163 0,164 1.40833333333334,165 2.81666666666666,166 4.225,167 5.63333333333334,168 7.04166666666666,169 8.45,169 8.45,0 8.45"
     style="stroke: none;stroke-width:2;fill:green;fill-opacity:0.3"/>
<polygon
     points="0 8.45,1 9.85833333333333,2 11.2666666666667,3 12.675,4 14.0833333333333,5 15.4916666666667,6 16.9,7 16.9,8 16.9,9 16.9,10 16.9,11 16.9,12 16.9,13 16.9,14 16.9,15 16.9,16 16.9,17 16.9,18 16.9,19 16.9,20 16.9,21 16.9,22 16.9,23 16.9,24 16.9,25 16.9,26 16.9,27 16.9,28 16.9,29 16.9,30 16.9,31 16.9,32 16.9,33 16.9,34 16.9,35 16.9,36 16.9,37 16.9,38 16.9,39 16.9,40 16.9,41 16.9,42 16.9,43 16.9,44 16.9,45 16.9,46 16.9,47 16.9,48 16.9,49 16.9,50 16.9,51 16.9,52 16.9,53 16.9,54 16.9,55 16.9,56 16.9,57 16.9,58 16.9,59 16.9,60 16.9,61 16.9,62 14.0833333333333,63 11.2666666666667,64 8.45,65 8.45,66 8.45,67 8.45,68 8.45,69 8.45,70 8.45,71 8.45,72 8.45,73 8.45,74 8.45,75 8.45,76 8.45,77 8.45,78 8.45,79 8.45,80 8.45,81 8.45,82 8.45,83 8.45,84 8.45,85 8.45,86 8.45,87 8.45,88 8.45,89 8.45,90 8.45,91 8.45,92 8.45,93 8.45,94 8.45,95 8.45,96 8.45,97 8.45,98 8.45,99 8.45,100 8.45,101 8.45,102 8.45,103 8.45,104 8.45,105 8.45,106 8.45,107 8.45,108 8.45,109 8.45,110 8.45,111 8.45,112 8.45,113 8.45,114 8.45,115 8.45,116 8.45,117 8.45,118 8.45,119 8.45,120 8.45,121 8.45,122 8.45,123 8.45,124 8.45,125 8.45,126 8.45,127 8.45,128 8.45,129 8.45,130 8.45,131 8.45,132 8.45,133 8.45,134 8.45,135 8.45,136 8.45,137 8.45,138 8.45,139 8.45,140 8.45,141 8.45,142 8.45,143 8.45,144 8.45,145 8.45,146 8.45,147 8.45,148 8.45,149 8.45,150 8.45,151 8.45,152 8.45,153 8.45,154 8.45,155 8.45,156 8.45,157 8.45,158 8.45,159 8.45,160 8.45,161 8.45,162 8.45,163 8.45,164 8.45,165 8.45,166 8.45,167 8.45,168 8.45,169 8.45,169 8.45,0 8.45"
     style="stroke: none;stroke-width:2;fill:red;fill-opacity:0.3"/>
     

</svg>


